<svg xmlns="http://www.w3.org/2000/svg" xmlns:xlink="http://www.w3.org/1999/xlink" viewBox="0 0 806.8 1430.46"><defs><style>.cls-1,.cls-6{fill:none;}.cls-2{clip-path:url(#clip-path);}.cls-3{fill:#fff;}.cls-4{fill:#2ea5d3;}.cls-5{fill:#f5843a;}.cls-6{stroke:#f58439;stroke-miterlimit:10;stroke-width:10px;}</style><clipPath id="clip-path"><circle class="cls-1" cx="427.74" cy="645.9" r="297.64"/></clipPath></defs><title>Asset 2</title><g id="Layer_2" data-name="Layer 2"><g id="图层_1" data-name="图层 1"><g class="cls-2"><path class="cls-3" d="M387,3.74C567.88,2.38,715.64,147.92,717,328.83s-144.18,328.66-325.09,330S63.25,514.67,61.89,333.77,206.07,5.11,387,3.74Z"/><polygon class="cls-4" points="198.8 495.74 30.8 446.74 0 986.72 290.8 998.72 652.8 946.72 806.8 844.72 717.01 441.09 694.7 451.61 640.59 542.86 550.13 618.07 414.06 597.55 198.8 495.74"/><path class="cls-5" d="M718.19,770.1A87.66,87.66,0,0,1,582.8,857.81q-7.63-7.08-15.7-13.69a328.9,328.9,0,0,0-208.83-74.41c-182.46,0-330.37,147.91-330.39,330.37,0,148.1,97.46,273.44,231.73,315.4A331.09,331.09,0,0,0,417.9,1425c3.61-.54,7.22-1,10.83-1.64,149-26.21,262.82-134.6,303.27-270.35a382.94,382.94,0,0,0,15.93-99.5A728.84,728.84,0,0,0,718.19,770.1Z"/><path class="cls-5" d="M495.29,109.67a85.29,85.29,0,1,1-84.65,85.93A85.29,85.29,0,0,1,495.29,109.67Z"/><path class="cls-5" d="M489.61,331.81a85.26,85.26,0,0,1,39.14-72.38c10.79-7,30.8-13.44,27.81-13.42a85.29,85.29,0,1,0,1.29,170.58c3,0-16.2-5.89-26.81-12.26A85.23,85.23,0,0,1,489.61,331.81Z"/><path class="cls-3" d="M495.42,125.87a69.09,69.09,0,1,1-68.57,69.61A69.08,69.08,0,0,1,495.42,125.87Z"/><path class="cls-4" d="M497.35,383.27a85.29,85.29,0,1,1-84.64,85.93A85.29,85.29,0,0,1,497.35,383.27Z"/><path class="cls-3" d="M426.17,453.11a6.61,6.61,0,0,0-1.54,1.12,4.17,4.17,0,0,0-.86,1.52c-.09.4-.15.8-.22,1.2-.23,1.35-.41,2.71-.55,4.09a67.37,67.37,0,0,0-.39,7.56,69.34,69.34,0,0,0,.5,7.54c.16,1.38.37,2.74.62,4.09.07.4.14.8.23,1.19a4.11,4.11,0,0,0,.89,1.51A6.55,6.55,0,0,0,426.4,484a6.66,6.66,0,0,0,3.17.8,6.1,6.1,0,0,0,.87-.09l1.83-.5L487.71,469l.45-.12a.9.9,0,0,0,.46-.77.88.88,0,0,0-.47-.77l-.45-.11L432,452.82l-1.83-.47a6.4,6.4,0,0,0-.88-.08A6.73,6.73,0,0,0,426.17,453.11Z"/><line class="cls-1" x1="499.65" y1="468.02" x2="414.06" y2="468.66"/><path class="cls-3" d="M443.46,418.77a6.64,6.64,0,0,0-1.89.2,4.28,4.28,0,0,0-1.51.88c-.27.31-.53.61-.78.93-.87,1.06-1.71,2.15-2.53,3.27a67,67,0,0,0-4.11,6.35,64.64,64.64,0,0,0-3.34,6.79c-.55,1.26-1.05,2.55-1.51,3.84-.14.38-.27.77-.39,1.15a4.13,4.13,0,0,0,0,1.75,6.72,6.72,0,0,0,.8,1.72,6.65,6.65,0,0,0,2.34,2.28c.27.15.54.24.81.36l1.83.47,55.64,14.53.44.12a.87.87,0,0,0,.76-1.34l-.33-.32-41-40.3-1.34-1.33a7.88,7.88,0,0,0-.73-.51A6.63,6.63,0,0,0,443.46,418.77Z"/><line class="cls-1" x1="499.65" y1="468.41" x2="425.2" y2="426.18"/><path class="cls-3" d="M475.81,397.33a6.5,6.5,0,0,0-1.73-.77,4.13,4.13,0,0,0-1.75,0c-.38.13-.76.26-1.14.41-1.29.47-2.56,1-3.83,1.56a68.94,68.94,0,0,0-6.73,3.45,67.44,67.44,0,0,0-6.29,4.2c-1.11.83-2.18,1.69-3.23,2.58-.31.26-.61.53-.91.8a4,4,0,0,0-.86,1.52,6.29,6.29,0,0,0-.17,1.89,6.41,6.41,0,0,0,.89,3.14,5.52,5.52,0,0,0,.52.72l1.34,1.33,40.92,40.39.32.33a.88.88,0,0,0,.9,0,.87.87,0,0,0,.43-.79l-.12-.44L479,402.26l-.5-1.82a8.5,8.5,0,0,0-.38-.81A6.52,6.52,0,0,0,475.81,397.33Z"/><line class="cls-1" x1="499.65" y1="468.41" x2="456.29" y2="394.61"/><path class="cls-3" d="M514.55,394.93a6.85,6.85,0,0,0-1.12-1.53,4.25,4.25,0,0,0-1.52-.87c-.39-.07-.79-.15-1.19-.21-1.35-.23-2.72-.41-4.09-.56a66.58,66.58,0,0,0-15.11.12c-1.37.16-2.73.37-4.09.62-.4.07-.79.14-1.18.23a4.23,4.23,0,0,0-1.51.88,6.08,6.08,0,0,0-1.09,1.56,5.79,5.79,0,0,0-.71,4.05l.5,1.82,15.23,55.44.12.44a.93.93,0,0,0,.77.47.91.91,0,0,0,.77-.47l.12-.45,14.39-55.67.48-1.83c0-.29.07-.58.08-.88A6.63,6.63,0,0,0,514.55,394.93Z"/><line class="cls-1" x1="499.64" y1="468.41" x2="499" y2="382.82"/><path class="cls-3" d="M152.22,668.15a24.8,24.8,0,0,0-4.13-5.66,15.36,15.36,0,0,0-5.63-3.21c-1.46-.29-2.93-.56-4.41-.8-5-.84-10.05-1.52-15.14-2.05a244.91,244.91,0,0,0-55.9.42c-5.09.61-10.11,1.37-15.12,2.29-1.48.26-2.94.53-4.39.85a15.56,15.56,0,0,0-5.6,3.29,23.36,23.36,0,0,0-4,5.75,24.27,24.27,0,0,0-3,11.71,22.11,22.11,0,0,0,.37,3.27l1.83,6.75L93.48,895.93l.42,1.63a3.34,3.34,0,0,0,2.86,1.72,3.18,3.18,0,0,0,2.85-1.74l.43-1.65,53.26-206,1.77-6.79a26.35,26.35,0,0,0,.29-3.25A24.26,24.26,0,0,0,152.22,668.15Z"/><line class="cls-1" x1="97.07" y1="940.09" x2="94.69" y2="623.34"/><path class="cls-3" d="M337.62,663.59a24.46,24.46,0,0,0-4.12-5.66,15.61,15.61,0,0,0-5.63-3.22c-1.46-.28-2.94-.56-4.41-.79-5-.84-10.06-1.52-15.15-2a244.91,244.91,0,0,0-55.9.42c-5.09.61-10.11,1.37-15.12,2.29-1.48.26-2.94.53-4.39.85a15.65,15.65,0,0,0-5.6,3.29,23.06,23.06,0,0,0-4,5.75,24.39,24.39,0,0,0-3,11.71,25.36,25.36,0,0,0,.37,3.27l1.84,6.75,56.38,205.17.43,1.63a3.33,3.33,0,0,0,2.85,1.72A3.21,3.21,0,0,0,285,893l.43-1.65,53.26-206,1.76-6.79a26.33,26.33,0,0,0,.3-3.25A24.27,24.27,0,0,0,337.62,663.59Z"/><line class="cls-1" x1="282.47" y1="935.53" x2="280.1" y2="618.78"/><path class="cls-3" d="M510.53,659a24.46,24.46,0,0,0-4.12-5.66,15.61,15.61,0,0,0-5.63-3.22c-1.46-.28-2.94-.56-4.41-.79-5-.84-10.06-1.52-15.14-2.05a244.2,244.2,0,0,0-28-1.4,240.52,240.52,0,0,0-27.93,1.82c-5.08.61-10.11,1.36-15.12,2.29-1.48.25-2.94.53-4.38.85a15.69,15.69,0,0,0-5.61,3.29,23.14,23.14,0,0,0-4,5.75,24.38,24.38,0,0,0-3,11.7,25,25,0,0,0,.37,3.27l1.84,6.76,56.38,205.17.43,1.63a3.34,3.34,0,0,0,2.85,1.72,3.21,3.21,0,0,0,2.86-1.74l.43-1.65,53.26-206,1.76-6.79a26.33,26.33,0,0,0,.3-3.25A24.27,24.27,0,0,0,510.53,659Z"/><line class="cls-1" x1="455.39" y1="930.97" x2="453.01" y2="614.22"/><path class="cls-3" d="M133.49,935.49a24.64,24.64,0,0,0,4.13,5.67,15.51,15.51,0,0,0,5.63,3.21c1.46.29,2.93.56,4.41.8,5,.84,10.05,1.51,15.14,2a244.15,244.15,0,0,0,55.9-.41c5.09-.61,10.12-1.37,15.12-2.29,1.49-.26,3-.53,4.39-.85a15.56,15.56,0,0,0,5.6-3.29,23.55,23.55,0,0,0,4-5.75,24.27,24.27,0,0,0,3-11.71,23.37,23.37,0,0,0-.36-3.27l-1.84-6.75L192.23,707.72l-.42-1.64a3.35,3.35,0,0,0-2.86-1.71,3.19,3.19,0,0,0-2.85,1.73l-.43,1.66-53.26,206-1.77,6.78a26.51,26.51,0,0,0-.29,3.26A24.22,24.22,0,0,0,133.49,935.49Z"/><line class="cls-1" x1="188.64" y1="663.56" x2="191.02" y2="980.31"/><path class="cls-3" d="M310.4,935.49a24.64,24.64,0,0,0,4.13,5.67,15.51,15.51,0,0,0,5.63,3.21c1.46.29,2.94.56,4.41.8,5,.84,10.05,1.51,15.14,2a244.15,244.15,0,0,0,55.9-.41c5.09-.61,10.12-1.37,15.13-2.29,1.48-.26,2.94-.53,4.38-.85a15.56,15.56,0,0,0,5.6-3.29,23.55,23.55,0,0,0,4-5.75,24.39,24.39,0,0,0,3-11.71,25,25,0,0,0-.37-3.27l-1.84-6.75L369.15,707.72l-.43-1.64a3.35,3.35,0,0,0-2.86-1.71A3.2,3.2,0,0,0,363,706.1l-.43,1.66-53.26,206-1.76,6.78a24.68,24.68,0,0,0-.3,3.26A24.22,24.22,0,0,0,310.4,935.49Z"/><line class="cls-1" x1="365.55" y1="663.56" x2="367.93" y2="980.31"/><path class="cls-3" d="M549,412.23a7,7,0,0,0-.2-1.89,4.28,4.28,0,0,0-.88-1.51l-.93-.78c-1.06-.87-2.14-1.71-3.27-2.53a65.8,65.8,0,0,0-6.36-4.1,63.63,63.63,0,0,0-6.78-3.35c-1.27-.54-2.55-1.05-3.84-1.5-.38-.15-.77-.28-1.15-.4a4.3,4.3,0,0,0-1.75,0,6.72,6.72,0,0,0-1.72.8,6.65,6.65,0,0,0-2.28,2.34,6.39,6.39,0,0,0-.35.81L519,402l-14.52,55.63-.12.45a.89.89,0,0,0,.43.78.86.86,0,0,0,.9,0l.33-.33,40.3-41,1.32-1.35a6.78,6.78,0,0,0,.52-.73A6.63,6.63,0,0,0,549,412.23Z"/><line class="cls-1" x1="499.35" y1="468.42" x2="541.59" y2="393.97"/><path class="cls-3" d="M570.44,444.58a6.84,6.84,0,0,0,.77-1.73,4.13,4.13,0,0,0,0-1.75c-.13-.38-.26-.76-.41-1.14-.48-1.28-1-2.56-1.56-3.82a67,67,0,0,0-3.46-6.74,64.91,64.91,0,0,0-4.2-6.29c-.83-1.11-1.68-2.18-2.57-3.22-.26-.32-.53-.63-.8-.92a4,4,0,0,0-1.52-.86,6.33,6.33,0,0,0-1.9-.17,6.65,6.65,0,0,0-3.14.88,7.71,7.71,0,0,0-.71.53l-1.33,1.34-40.4,40.92-.33.32a.9.9,0,0,0,0,.9.89.89,0,0,0,.79.43l.45-.12,55.41-15.37,1.82-.51a8.16,8.16,0,0,0,.8-.36A6.58,6.58,0,0,0,570.44,444.58Z"/><line class="cls-1" x1="499.35" y1="468.42" x2="573.16" y2="425.07"/><path class="cls-3" d="M572.83,483.31a6.65,6.65,0,0,0,1.54-1.11,4.34,4.34,0,0,0,.87-1.52c.07-.4.15-.8.21-1.2.23-1.35.41-2.71.56-4.09a66.58,66.58,0,0,0-.12-15.11c-.16-1.37-.37-2.73-.62-4.08-.07-.4-.14-.8-.23-1.19a4.19,4.19,0,0,0-.89-1.51,7.11,7.11,0,0,0-4.71-1.89,5,5,0,0,0-.88.09l-1.83.5-55.44,15.24-.45.11a.9.9,0,0,0-.46.78.87.87,0,0,0,.47.76l.45.12L567,483.6l1.84.48a7.8,7.8,0,0,0,.87.08A6.62,6.62,0,0,0,572.83,483.31Z"/><line class="cls-1" x1="499.35" y1="468.41" x2="584.94" y2="467.77"/><path class="cls-3" d="M555.83,518.06a6.6,6.6,0,0,0,1.89-.19,4.46,4.46,0,0,0,1.51-.89c.26-.31.53-.61.78-.92.87-1.06,1.71-2.15,2.53-3.27A67.29,67.29,0,0,0,570,499.65c.53-1.27,1-2.55,1.5-3.85.14-.38.27-.76.4-1.14a4.35,4.35,0,0,0,0-1.76,6.72,6.72,0,0,0-.8-1.72,6.54,6.54,0,0,0-2.34-2.27,5.27,5.27,0,0,0-.81-.36l-1.83-.48-55.63-14.53-.45-.12a.89.89,0,0,0-.78.44.86.86,0,0,0,0,.9l.33.33,41,40.29,1.36,1.33a6.44,6.44,0,0,0,.71.51A6.59,6.59,0,0,0,555.83,518.06Z"/><line class="cls-1" x1="499.64" y1="468.41" x2="574.09" y2="510.66"/><path class="cls-3" d="M523.48,539.5a6.54,6.54,0,0,0,1.73.78,4.48,4.48,0,0,0,1.75,0c.39-.13.77-.26,1.14-.41,1.28-.49,2.56-1,3.83-1.57a67.58,67.58,0,0,0,13-7.65c1.1-.84,2.18-1.69,3.22-2.58l.91-.79a4.34,4.34,0,0,0,.87-1.53,7.1,7.1,0,0,0-.72-5,4.77,4.77,0,0,0-.53-.72l-1.34-1.32-40.91-40.4-.33-.33a.88.88,0,0,0-.9,0,.87.87,0,0,0-.43.79l.12.44,15.37,55.41.51,1.83a8.07,8.07,0,0,0,.37.8A6.52,6.52,0,0,0,523.48,539.5Z"/><line class="cls-1" x1="499.65" y1="468.41" x2="543" y2="542.22"/><path class="cls-3" d="M450,524.6a6.57,6.57,0,0,0,.19,1.89,4.28,4.28,0,0,0,.89,1.51c.3.27.61.53.92.78,1.06.87,2.15,1.72,3.27,2.53a64,64,0,0,0,6.36,4.1,64.67,64.67,0,0,0,6.78,3.36c1.27.53,2.55,1,3.84,1.49.39.15.77.28,1.15.41a4.3,4.3,0,0,0,1.75,0,6.32,6.32,0,0,0,1.73-.8,6.62,6.62,0,0,0,2.27-2.34,5.74,5.74,0,0,0,.36-.81l.48-1.83,14.52-55.63.13-.44a.87.87,0,0,0-1.34-.77l-.33.33-40.3,41-1.33,1.36a5.7,5.7,0,0,0-.5.72A6.49,6.49,0,0,0,450,524.6Z"/><line class="cls-1" x1="499.65" y1="468.42" x2="457.4" y2="542.86"/><path class="cls-3" d="M428.26,492.26a6.54,6.54,0,0,0-.78,1.73,4.35,4.35,0,0,0,0,1.76c.12.38.26.76.41,1.13.48,1.28,1,2.56,1.56,3.83a63.88,63.88,0,0,0,3.46,6.73,66.86,66.86,0,0,0,4.19,6.3c.83,1.09,1.69,2.17,2.58,3.22.26.31.53.62.8.91a4.07,4.07,0,0,0,1.52.87,7.09,7.09,0,0,0,5-.72,5.57,5.57,0,0,0,.72-.53l1.33-1.34,40.39-40.91.33-.33a.9.9,0,0,0,0-.9.93.93,0,0,0-.8-.43l-.44.13-55.41,15.36-1.83.51a8.07,8.07,0,0,0-.8.37A6.52,6.52,0,0,0,428.26,492.26Z"/><line class="cls-1" x1="499.35" y1="468.43" x2="425.54" y2="511.78"/><path class="cls-6" d="M387,5C567.88,3.65,715.64,149.18,717,330.1s-144.18,328.66-325.09,330S63.25,515.94,61.89,335,206.07,6.37,387,5Z"/><path class="cls-5" d="M61.89,335c1.36,180.9,149.12,326.45,330,325.08a326.2,326.2,0,0,0,210.83-79C526.66,617,441.62,590.39,403.68,523.6c-24.4-43-37.84-91.42-46.43-125-9-35.11-8.38-53.46-15.49-74.27-7.36-21.54-27.27-38.37-50-45.13-1.51-.45-3.26-2.1-5.2-4.71,33.13-4.66,49.54-23.47,61.27-37,12.56-14.46,28-51.18,37.24-71.39s22.21-48.64,40.15-69C480.08,34.93,553.07,44.35,601.7,83.66a20,20,0,0,0,3.08,2.09A326.3,326.3,0,0,0,387,5C206.07,6.37,60.52,154.13,61.89,335Z"/></g></g></g></svg>