<?xml version="1.0" encoding="utf-8"?>
<!-- Generator: Adobe Illustrator 23.0.1, SVG Export Plug-In . SVG Version: 6.00 Build 0)  -->
<svg version="1.1" id="Layer_1" xmlns="http://www.w3.org/2000/svg" xmlns:xlink="http://www.w3.org/1999/xlink" x="0px" y="0px"
	 viewBox="0 0 1101.4 752.5" style="enable-background:new 0 0 1101.4 752.5;" xml:space="preserve">
<style type="text/css">
	.st0{fill:none;}
	.st1{fill:#2BA4D2;}
	.st2{fill:#FFFFFF;}
</style>
<title>Asset 4</title>
<g>
	<g id="Layer_1-2">
		<path class="st0" d="M0,356.4c0.1-0.3,0.2-0.5,0.3-0.8"/>
		<path class="st1" d="M1101.4,374.8V111.1c-4.6,6.6-9.8,12.7-15.4,18.5c-49.9,50.8-129,58.8-188,18.9c-8.6-7.9-17.4-15.7-26.4-23.1
			c-39.7-32.4-83.7-59.2-130.7-79.7l-73.6,284.6l-0.7,2.8c-0.9,1.8-2.8,2.9-4.8,2.9c-2,0-3.8-1.1-4.8-2.9l-0.7-2.8L566,1.9
			C550.7,0.7,535.3,0,519.7,0c-19.1,0-38.1,1-57.1,2.9L375.9,338l-0.7,2.8c-0.9,1.8-2.8,2.9-4.8,2.9c-2,0-3.8-1.2-4.8-2.9l-0.7-2.8
			L286,51.2c-18.2,8.4-36,17.9-53.2,28.2l81,294.8l3.1,11.4c0.3,1.8,0.5,3.7,0.6,5.5c0,6.9-1.7,13.7-5,19.7
			c-1.8,3.6-4.1,6.8-6.8,9.7c-2.7,2.5-5.9,4.4-9.4,5.5c-2.4,0.5-4.9,1-7.4,1.4c-8.4,1.6-16.9,2.8-25.5,3.9
			c-15.6,1.9-31.3,2.9-47.1,3.1c-15.8,0.1-31.5-0.7-47.2-2.4c-8.6-0.9-17.1-2-25.5-3.5c-2.5-0.4-5-0.9-7.4-1.3
			c-3.5-1.1-6.7-3-9.5-5.4c-2.8-2.8-5.1-6-7-9.5c-3.4-6-5.2-12.8-5.3-19.7c0-1.8,0.2-3.7,0.5-5.5l3-11.4l68.6-265.2
			c-29.6,22.2-57,47.2-81.7,74.7L63.4,345.7l-0.7,2.8c-0.9,1.8-2.8,2.9-4.8,2.9c-2,0-3.8-1.1-4.8-2.9l-0.7-2.8L35,282.5
			C21.7,306,10.1,330.4,0.3,355.6c-0.1,0.3-0.2,0.5-0.3,0.8v396.2h337.6c0.6-1.6,1.4-3,2.5-4.3c5.4-6.6,15.2-7.5,21.8-2.1
			c2.1,1.7,3.7,3.9,4.6,6.4h261.2c-0.7-0.4-1.3-0.8-1.9-1.3c-3.7-2.5-6.9-5.8-9.4-9.5c0.2,0.2,0.3,0.3,0.5,0.5
			c1.7,1.4,4.3,1.2,5.8-0.5c0.5-0.6,0.8-1.4,0.9-2.2c0-0.3,0-0.7,0-1c0-8.6,7-15.5,15.6-15.4c8.6,0,15.5,7,15.4,15.6
			c0,2-0.4,3.9-1.1,5.8c-0.9,2.3-2.5,4.4-4.4,6l-0.4,0.3c-0.8,0.7-1.6,1.3-2.5,1.8h68.3c0.2-0.3,0.5-0.7,0.7-1
			c5.4-6.6,15.2-7.5,21.8-2.1c1.1,0.9,2,1.9,2.8,3.1h258.3c-2.6-2.2-4.8-4.7-6.6-7.5c0.1,0.2,0.3,0.4,0.5,0.5
			c1.8,1.4,4.3,1.2,5.8-0.5c0.5-0.6,0.8-1.4,0.9-2.2c0-0.3,0-0.7,0-1c0-8.6,7-15.5,15.5-15.5s15.5,7,15.5,15.5
			c0,3.6-1.3,7.1-3.6,9.9c-0.2,0.3-0.5,0.5-0.7,0.8h67.3c2.5-1.9,5.5-3.1,8.7-3.2V406.1c-1.7-0.2-3.5-0.6-5.1-1.3
			c-1.5-0.6-2.8-1.4-4.1-2.4c-3.7-2.5-6.9-5.8-9.4-9.5c0.2,0.2,0.3,0.3,0.5,0.5c1.7,1.4,4.3,1.2,5.8-0.5c0,0,0,0,0,0
			c0.5-0.6,0.8-1.4,0.9-2.2c0-0.3,0-0.6,0-1C1090.2,382.6,1094.8,376.6,1101.4,374.8L1101.4,374.8z M1021.6,653.8
			c0-8.6,7-15.5,15.6-15.4c8.6,0,15.5,7,15.4,15.6c0,2-0.4,3.9-1.1,5.8c-0.6,1.4-1.4,2.8-2.4,4c-0.6,0.7-1.3,1.4-2,2l-0.4,0.3
			c-5.2,4.5-12.5,5.6-18.8,2.9c-1.5-0.6-2.8-1.4-4.1-2.4c-3.7-2.5-6.9-5.8-9.4-9.5c0.2,0.2,0.3,0.3,0.5,0.5c1.7,1.4,4.3,1.2,5.8-0.5
			c0,0,0,0,0,0c0.5-0.6,0.8-1.4,0.9-2.2C1021.6,654.4,1021.6,654.1,1021.6,653.8L1021.6,653.8z M1050.7,580.9
			c-1.5-0.6-2.8-1.4-4.1-2.4c-3.7-2.5-6.9-5.8-9.4-9.5c0.2,0.2,0.3,0.3,0.5,0.5c1.8,1.4,4.3,1.2,5.8-0.5c0.5-0.6,0.8-1.4,0.9-2.2
			c0-0.3,0-0.7,0-1c0.1-8.5,7-15.4,15.6-15.4c8.5,0.1,15.4,7,15.4,15.6c0,2-0.4,3.9-1.1,5.7c-0.6,1.5-1.4,2.8-2.4,4
			c-0.6,0.7-1.3,1.4-2,2l-0.4,0.3C1064.3,582.4,1057,583.5,1050.7,580.9L1050.7,580.9z M1018.2,282.4c0.8,0.7,1.9,1,3,0.9
			c2-0.2,3.5-1.7,3.7-3.7c0-0.3,0-0.6,0-1c0-8.6,7-15.5,15.6-15.4c8.6,0,15.5,7,15.4,15.6c0,2-0.4,3.9-1.1,5.8
			c-0.6,1.4-1.4,2.8-2.4,4c-0.6,0.7-1.3,1.4-2,2l-0.4,0.4c-5.2,4.5-12.5,5.6-18.8,2.9c-1.5-0.6-2.8-1.4-4.1-2.4
			c-3.7-2.5-6.9-5.8-9.4-9.5C1017.9,282.1,1018.1,282.2,1018.2,282.4L1018.2,282.4z M995.4,370.5c0.8,0.7,1.9,1,3,0.9
			c2-0.2,3.6-1.7,3.7-3.7c0-0.3,0-0.6,0-1c0.1-8.5,7.1-15.4,15.6-15.3c8.5,0.1,15.4,7.1,15.3,15.6c0,4.5-2,8.7-5.5,11.6l-0.4,0.3
			c-5.2,4.5-12.5,5.6-18.8,2.9c-1.5-0.6-2.8-1.4-4.1-2.4c-3.7-2.5-6.9-5.8-9.3-9.5C995.1,370.1,995.2,370.3,995.4,370.5L995.4,370.5
			z M972.5,458.5c1.7,1.4,4.3,1.2,5.8-0.5c0,0,0,0,0,0c0.5-0.6,0.8-1.4,0.9-2.2c0-0.3,0-0.7,0-1c0.1-8.5,7-15.4,15.6-15.4
			c8.5,0.1,15.4,7,15.4,15.6c0,2-0.4,3.9-1.1,5.7c-0.6,1.4-1.4,2.8-2.4,4c-0.6,0.7-1.3,1.4-2,2l-0.4,0.3c-6.5,5.6-16.1,5.8-22.9,0.5
			c-3.7-2.5-6.9-5.8-9.4-9.5C972.2,458.2,972.3,458.4,972.5,458.5L972.5,458.5z M949.7,546.6c0.8,0.7,1.9,1,3,0.9
			c2-0.2,3.5-1.7,3.7-3.7c0-0.3,0-0.7,0-1c0-8.6,7-15.5,15.6-15.4c8.6,0,15.5,7,15.4,15.6c0,2-0.4,3.9-1.1,5.8
			c-0.6,1.4-1.4,2.8-2.4,4c-0.6,0.7-1.3,1.4-2,2l-0.4,0.3c-5.2,4.5-12.5,5.6-18.8,2.9c-1.5-0.6-2.8-1.4-4.1-2.4
			c-3.7-2.5-6.9-5.8-9.4-9.5C949.3,546.3,949.5,546.4,949.7,546.6L949.7,546.6z M958.8,619.1c6.6,5.4,7.5,15.2,2.1,21.8c0,0,0,0,0,0
			c-0.6,0.7-1.3,1.4-2,2c-0.1,0.1-0.2,0.2-0.4,0.3c-6.5,5.6-16.1,5.8-22.9,0.5c-3.7-2.5-6.9-5.8-9.3-9.5c0.1,0.2,0.3,0.4,0.5,0.5
			c0.8,0.7,1.9,1,3,0.9c2-0.2,3.5-1.7,3.7-3.7c0-0.3,0-0.7,0-1c0.1-8.6,7-15.4,15.6-15.4C952.7,615.5,956.1,616.8,958.8,619.1
			L958.8,619.1z M907.3,347.6c0.8,0.7,1.9,1,3,0.9c2-0.2,3.5-1.7,3.7-3.7c0-0.3,0-0.6,0-1c0-8.6,7-15.5,15.6-15.4
			c8.6,0,15.5,7,15.4,15.6c0,3.6-1.3,7-3.6,9.8c-0.6,0.7-1.3,1.4-2,2l-0.4,0.4c-5.2,4.5-12.5,5.6-18.8,2.9c-1.5-0.6-2.8-1.4-4.1-2.4
			c-3.7-2.5-6.9-5.8-9.4-9.5C907,347.3,907.1,347.5,907.3,347.6z M884.5,435.7c0.8,0.7,1.9,1,3,0.9c1.1-0.1,2.1-0.6,2.8-1.5
			c0.5-0.6,0.8-1.4,0.9-2.2c0-0.3,0-0.6,0-1c0-8.6,7-15.5,15.5-15.4c8.6,0,15.5,7,15.4,15.5c0,2-0.4,4-1.2,5.9c-1,2.3-2.5,4.4-4.4,6
			l-0.4,0.3c-5.2,4.5-12.5,5.6-18.8,2.9c-1.5-0.6-2.8-1.4-4.1-2.4c-3.7-2.5-6.9-5.8-9.4-9.5C884.1,435.4,884.3,435.5,884.5,435.7z
			 M861.6,523.7c1.7,1.4,4.3,1.2,5.8-0.5c0,0,0,0,0,0c0.5-0.6,0.8-1.4,0.9-2.2c0-0.3,0-0.7,0-1c0.1-8.5,7-15.4,15.6-15.4
			c8.5,0.1,15.4,7,15.4,15.6c0,4.5-2,8.8-5.5,11.7c-0.1,0.1-0.2,0.2-0.4,0.3c-5.2,4.5-12.5,5.6-18.8,2.9c-1.5-0.6-2.8-1.4-4.1-2.4
			c-3.7-2.5-6.9-5.8-9.3-9.5C861.3,523.4,861.4,523.6,861.6,523.7L861.6,523.7z M838.8,611.8c0.8,0.7,1.9,1,3,0.9
			c2-0.2,3.5-1.7,3.7-3.7c0-0.3,0-0.7,0-1c0.1-8.5,7-15.4,15.6-15.4c8.5,0.1,15.4,7,15.4,15.6c0,2-0.4,3.9-1.1,5.7
			c-0.9,2.3-2.5,4.4-4.4,6l-0.4,0.3c-6.5,5.6-16.1,5.8-22.9,0.5c-3.7-2.5-6.9-5.8-9.4-9.5C838.4,611.5,838.6,611.7,838.8,611.8
			L838.8,611.8z M796.4,412.8c1.8,1.4,4.4,1.2,5.8-0.6c0.5-0.6,0.8-1.4,0.9-2.2c0-0.3,0-0.6,0-1c0-8.6,7-15.5,15.6-15.4
			s15.5,7,15.4,15.6c0,2-0.4,3.9-1.1,5.8c-0.6,1.4-1.4,2.8-2.4,4c-0.6,0.7-1.3,1.4-2,2l-0.4,0.4c-6.5,5.6-16.1,5.8-22.9,0.5
			c-3.7-2.5-6.9-5.7-9.4-9.5C796.1,412.5,796.2,412.7,796.4,412.8L796.4,412.8z M773.5,500.9c0.8,0.7,1.9,1,3,0.9
			c2-0.2,3.5-1.7,3.7-3.7c0-0.3,0-0.7,0-1c0.1-8.5,7-15.4,15.6-15.4c8.5,0.1,15.4,7,15.4,15.6c0,2-0.4,3.9-1.1,5.7
			c-0.6,1.5-1.4,2.8-2.4,4c-0.6,0.7-1.3,1.4-2,2l-0.4,0.3c-5.2,4.5-12.5,5.6-18.8,3c-1.5-0.6-2.8-1.4-4.1-2.4
			c-3.7-2.6-6.9-5.8-9.4-9.6C773.2,500.6,773.3,500.7,773.5,500.9L773.5,500.9z M558.4,627.6c0-8.6,7-15.5,15.6-15.4
			c8.6,0,15.5,7,15.4,15.6c0,2-0.4,3.9-1.1,5.8c-0.6,1.4-1.4,2.8-2.4,4c-0.6,0.7-1.3,1.4-2,2l-0.4,0.3c-5.2,4.5-12.5,5.6-18.8,2.9
			c-1.5-0.6-2.8-1.4-4.1-2.4c-3.7-2.5-6.9-5.8-9.4-9.5c0.2,0.2,0.3,0.3,0.5,0.5c1.7,1.4,4.3,1.2,5.8-0.5c0,0,0,0,0,0
			c0.5-0.6,0.8-1.4,0.9-2.2C558.4,628.2,558.4,627.9,558.4,627.6z M581.2,539.5c0.1-8.5,7-15.4,15.6-15.4c8.5,0.1,15.4,7,15.4,15.6
			c0,2-0.4,3.9-1.1,5.7c-0.6,1.4-1.4,2.8-2.4,4c-0.6,0.7-1.3,1.4-2,2l-0.4,0.3c-6.5,5.6-16.1,5.8-22.9,0.5c-3.7-2.5-6.9-5.8-9.4-9.5
			c0.2,0.2,0.3,0.3,0.5,0.5c0.8,0.7,1.9,1,3,0.9c2-0.2,3.5-1.7,3.7-3.7C581.3,540.1,581.2,539.8,581.2,539.5z M750.7,589
			c0.8,0.7,1.9,1,3,0.9c1.1-0.1,2.1-0.6,2.8-1.5c0.5-0.6,0.8-1.4,0.9-2.2c0-0.3,0-0.7,0-1c0-3.6,1.3-7,3.5-9.8
			c5.5-6.6,15.2-7.5,21.8-2c5.2,4.3,7,11.5,4.5,17.8c-0.6,1.4-1.4,2.8-2.4,4c-0.6,0.7-1.3,1.4-2,2l-0.4,0.3
			c-5.2,4.5-12.5,5.6-18.8,2.9c-1.5-0.6-2.8-1.4-4.1-2.4c-3.7-2.5-6.9-5.8-9.4-9.5C750.4,588.6,750.5,588.8,750.7,589z M727.8,677
			c1.8,1.4,4.4,1.2,5.8-0.6c0.5-0.6,0.8-1.4,0.9-2.2c0-0.3,0-0.7,0-1c0.1-8.6,7-15.5,15.6-15.4s15.5,7,15.4,15.6
			c0,3.6-1.3,7.1-3.6,9.8c-0.6,0.7-1.3,1.4-2,2l-0.4,0.3c-5.2,4.5-12.5,5.6-18.8,2.9c-1.5-0.6-2.8-1.4-4.1-2.4
			c-3.7-2.5-6.9-5.8-9.3-9.5C727.5,676.7,727.7,676.9,727.8,677z M685.5,478c1.7,1.4,4.3,1.2,5.8-0.5c0.5-0.6,0.8-1.4,0.9-2.2
			c0-0.3,0-0.7,0-1c0-8.6,7-15.5,15.6-15.4c8.6,0,15.5,7,15.4,15.6c0,2-0.4,4-1.2,5.8c-0.6,1.4-1.4,2.8-2.4,4c-0.6,0.7-1.3,1.4-2,2
			l-0.4,0.3c-5.2,4.5-12.5,5.6-18.8,2.9c-1.5-0.6-2.8-1.4-4.1-2.4c-3.7-2.5-6.9-5.8-9.4-9.5C685.1,477.7,685.3,477.9,685.5,478
			L685.5,478z M662.6,566.1c0.8,0.7,1.9,1,3,0.9c2-0.2,3.5-1.7,3.7-3.7c0-0.3,0-0.7,0-1c0.1-8.5,7.1-15.4,15.7-15.3
			s15.4,7.1,15.3,15.7c-0.1,4.5-2.1,8.7-5.5,11.6l-0.4,0.3c-6.5,5.6-16.1,5.8-22.9,0.5c-3.7-2.5-6.9-5.8-9.3-9.5
			C662.3,565.8,662.5,566,662.6,566.1L662.6,566.1z M639.8,654.2c1.7,1.4,4.3,1.2,5.8-0.5c0,0,0,0,0,0c0.5-0.6,0.8-1.4,0.9-2.2
			c0-0.3,0-0.7,0-1c0-8.6,7-15.5,15.6-15.4c8.6,0,15.5,7,15.4,15.6c0,4.6-2.1,8.9-5.6,11.8c-0.1,0.1-0.2,0.2-0.4,0.3
			c-5.2,4.5-12.5,5.6-18.8,2.9c-1.5-0.6-2.8-1.4-4.1-2.4c-3.7-2.5-6.9-5.8-9.4-9.5C639.4,653.8,639.6,654,639.8,654.2z M413.1,387.2
			l3-11.4l89.8-347.2l0.7-2.8c0.9-1.8,2.8-2.9,4.8-2.9c2,0,3.8,1.1,4.8,2.9l0.7,2.8l95,345.8l3.1,11.4c0.3,1.8,0.5,3.7,0.6,5.5
			c0,6.9-1.7,13.7-5,19.7c-1.8,3.6-4.1,6.8-6.8,9.7c-2.7,2.5-5.9,4.4-9.4,5.5c-2.4,0.5-4.9,1-7.4,1.4c-8.4,1.6-16.9,2.8-25.5,3.9
			c-15.6,1.9-31.3,2.9-47.1,3.1c-15.7,0.1-31.5-0.7-47.1-2.4c-8.6-0.9-17.1-2-25.5-3.5c-2.5-0.4-5-0.9-7.4-1.3
			c-3.5-1.1-6.7-3-9.5-5.4c-7.6-7.9-11.9-18.3-12.3-29.2C412.7,390.9,412.9,389.1,413.1,387.2z M447.5,692.8
			c0.1-8.5,7-15.4,15.6-15.4c8.5,0.1,15.4,7,15.4,15.6c0,2-0.4,3.9-1.1,5.7c-0.6,1.5-1.4,2.8-2.4,4c-0.6,0.7-1.3,1.4-2,2l-0.4,0.3
			c-5.2,4.5-12.5,5.6-18.8,2.9c-1.5-0.6-2.8-1.4-4.1-2.4c-3.7-2.5-6.9-5.8-9.4-9.5c0.2,0.2,0.3,0.3,0.5,0.5c1.7,1.4,4.3,1.2,5.8-0.5
			c0.5-0.6,0.8-1.4,0.9-2.2C447.5,693.4,447.5,693.1,447.5,692.8L447.5,692.8z M470.3,604.7c0.1-8.5,7-15.4,15.6-15.4
			c8.5,0.1,15.4,7,15.4,15.6c0,2-0.4,3.9-1.1,5.7c-0.6,1.5-1.4,2.8-2.4,4c-0.6,0.7-1.3,1.4-2,2l-0.4,0.3c-5.2,4.5-12.5,5.6-18.8,2.9
			c-1.5-0.6-2.8-1.4-4.1-2.4c-3.7-2.5-6.9-5.8-9.4-9.5c0.1,0.2,0.3,0.4,0.5,0.5c1.8,1.4,4.4,1.2,5.8-0.6c0.5-0.6,0.8-1.4,0.9-2.2
			C470.3,605.4,470.3,605,470.3,604.7L470.3,604.7z M352.7,673.7c1.8,1.4,4.3,1.2,5.8-0.5c0.5-0.6,0.8-1.4,0.9-2.2c0-0.3,0-0.7,0-1
			c0-8.6,7-15.5,15.6-15.4c8.6,0,15.5,7,15.4,15.6c0,4.6-2,8.9-5.5,11.8l-0.4,0.3c-6.5,5.6-16.1,5.8-22.9,0.5
			c-3.7-2.5-6.9-5.8-9.4-9.5C352.4,673.4,352.6,673.5,352.7,673.7L352.7,673.7z M278.3,741.1c-1,2.3-2.5,4.4-4.4,6l-0.4,0.3
			c-5.2,4.5-12.5,5.6-18.8,2.9c-1.5-0.6-2.8-1.4-4.1-2.4c-3.7-2.5-6.9-5.8-9.4-9.5c0.2,0.2,0.3,0.3,0.5,0.5c1.7,1.4,4.3,1.2,5.8-0.5
			c0.5-0.6,0.8-1.4,0.9-2.2c0-0.3,0-0.7,0-1c0.1-8.5,7-15.4,15.6-15.4c8.5,0.1,15.4,7,15.4,15.6
			C279.5,737.3,279.1,739.3,278.3,741.1L278.3,741.1z M565.4,721.6c-1,2.3-2.5,4.4-4.4,6c-0.1,0.1-0.2,0.2-0.4,0.3
			c-6.5,5.6-16.1,5.8-22.9,0.5c-3.7-2.5-6.9-5.8-9.3-9.5c0.2,0.2,0.3,0.3,0.5,0.5c0.8,0.7,1.9,1,3,0.9c2-0.2,3.5-1.7,3.7-3.7
			c0-0.3,0-0.7,0-1c0-1,0.1-2.1,0.3-3.1c1.7-8.4,9.9-13.7,18.3-12c6,1.3,10.7,6,12,12C566.8,715.6,566.5,718.7,565.4,721.6
			L565.4,721.6z M833.4,712.6c-3.1-0.4-6.1-1.7-8.6-3.6c-3.7-2.5-6.9-5.8-9.4-9.6c0.2,0.2,0.3,0.3,0.5,0.5c1.7,1.4,4.3,1.2,5.8-0.5
			c0,0,0,0,0,0c0.5-0.6,0.8-1.4,0.9-2.2c0-0.3,0-0.7,0-1c0-8.6,7-15.5,15.6-15.4c8.6,0,15.5,7,15.4,15.6c0,2-0.4,3.9-1.1,5.8
			c-0.6,1.4-1.4,2.8-2.4,4c-0.6,0.7-1.3,1.4-2,2l-0.4,0.3c-2.6,2.2-5.8,3.7-9.1,4.1C836.8,712.8,835.1,712.8,833.4,712.6
			L833.4,712.6z M940.5,725c-0.6,1.4-1.4,2.8-2.4,4c-0.6,0.7-1.3,1.4-2,2c-0.1,0.1-0.2,0.2-0.4,0.3c-5.2,4.5-12.5,5.6-18.8,2.9
			c-1.5-0.6-2.8-1.4-4.1-2.4c-3.7-2.5-6.9-5.8-9.4-9.5c0.2,0.2,0.3,0.3,0.5,0.5c1.7,1.4,4.3,1.2,5.8-0.5c0,0,0,0,0,0
			c0.5-0.6,0.8-1.4,0.9-2.2c0-0.3,0-0.7,0-1c0.1-8.5,7-15.4,15.6-15.4c8.5,0.1,15.4,7,15.4,15.6C941.6,721.2,941.2,723.1,940.5,725
			L940.5,725z M1092.6,465.9c6.6,5.4,7.5,15.1,2.1,21.7c0,0,0,0-0.1,0.1c-0.6,0.7-1.3,1.4-2,2l-0.4,0.3c-6.5,5.6-16.1,5.8-22.9,0.5
			c-3.7-2.5-6.9-5.8-9.3-9.5c0.2,0.2,0.3,0.3,0.5,0.5c1.8,1.4,4.4,1.2,5.8-0.6c0.5-0.6,0.8-1.4,0.9-2.2c0-0.3,0-0.7,0-1
			c0.1-8.6,7-15.4,15.6-15.4C1086.4,462.3,1089.9,463.6,1092.6,465.9L1092.6,465.9z"/>
		<path class="st2" d="M53.1,348.5c1,1.7,2.8,2.8,4.8,2.9c2,0,3.9-1.1,4.8-2.9l0.7-2.8l41.5-160.4c-26.7,29.8-50.1,62.4-69.9,97.2
			l17.4,63.2L53.1,348.5z"/>
		<path class="st2" d="M365.5,340.8c1,1.7,2.8,2.9,4.8,2.9c2,0,3.9-1.1,4.8-2.9l0.7-2.8L462.5,2.9C401.4,9.1,341.7,25.4,286,51.2
			L364.8,338L365.5,340.8z"/>
		<path class="st2" d="M657,333.1c1,1.7,2.8,2.8,4.8,2.9c2,0,3.9-1.1,4.8-2.9l0.7-2.8l73.6-284.5C685.4,21.7,626.3,6.9,566,1.9
			l90.2,328.5L657,333.1z"/>
		<path class="st2" d="M115,387.2c-0.3,1.8-0.5,3.6-0.5,5.5c0.1,6.9,1.9,13.7,5.3,19.7c1.9,3.5,4.2,6.7,7,9.5c2.7,2.4,6,4.3,9.5,5.4
			c2.5,0.5,4.9,1,7.4,1.3c8.4,1.4,16.9,2.6,25.5,3.5c15.7,1.7,31.4,2.5,47.2,2.4c15.7-0.1,31.4-1.1,47.1-3.1c8.6-1,17-2.3,25.5-3.9
			c2.5-0.4,5-0.9,7.4-1.4c3.5-1.2,6.7-3.1,9.4-5.5c2.7-2.9,5-6.1,6.8-9.7c3.3-6,5-12.8,5-19.7c-0.1-1.9-0.3-3.7-0.6-5.5l-3.1-11.4
			l-81-294.8c-16,9.6-31.4,20-46.2,31.1L118,375.8L115,387.2z"/>
		<path class="st2" d="M424.9,422c2.7,2.5,6,4.3,9.5,5.4c2.5,0.5,4.9,1,7.4,1.3c8.4,1.4,16.9,2.6,25.5,3.5
			c15.7,1.7,31.4,2.5,47.2,2.4c15.7-0.1,31.4-1.1,47.1-3.1c8.6-1,17-2.3,25.5-3.9c2.5-0.4,5-0.9,7.4-1.4c3.5-1.2,6.7-3.1,9.4-5.5
			c2.7-2.9,5-6.1,6.8-9.7c3.3-6,5-12.8,5-19.7c-0.1-1.9-0.3-3.7-0.6-5.5l-3-11.4L517,28.5l-0.7-2.8c-1-1.8-2.8-2.9-4.8-2.9
			c-2,0-3.9,1.1-4.8,2.9l-0.7,2.8l-89.8,347.2l-3,11.4c-0.3,1.8-0.4,3.6-0.5,5.5C413,403.6,417.4,414.1,424.9,422L424.9,422z"/>
		<path class="st2" d="M250.7,747.9c1.2,1,2.6,1.8,4.1,2.4c6.3,2.7,13.6,1.6,18.8-2.9l0.4-0.3c6.5-5.6,7.3-15.3,1.7-21.8
			c-5.6-6.5-15.3-7.3-21.8-1.7c-0.7,0.6-1.3,1.2-1.8,1.8c-2.3,2.7-3.5,6.2-3.5,9.8c0,0.3,0,0.7,0,1c-0.2,2.3-2.3,3.9-4.5,3.7
			c-0.8-0.1-1.6-0.4-2.2-0.9c-0.2-0.2-0.3-0.3-0.5-0.5C243.7,742.2,246.9,745.4,250.7,747.9z"/>
		<path class="st2" d="M361.6,682.7c6.8,5.3,16.3,5.1,22.9-0.5l0.4-0.3c6.5-5.5,7.4-15.3,1.9-21.8c-5.5-6.5-15.3-7.4-21.8-1.9
			c-3.5,2.9-5.5,7.2-5.5,11.7c0,0.3,0,0.7,0,1c-0.2,2-1.8,3.5-3.7,3.7c-1.1,0.1-2.2-0.2-3-0.9c-0.2-0.2-0.3-0.3-0.5-0.5
			C354.7,677,357.9,680.2,361.6,682.7z"/>
		<path class="st2" d="M495.7,592.9c-6.6-5.4-16.3-4.5-21.8,2.1c-2.3,2.8-3.5,6.2-3.5,9.8c0,0.3,0,0.7,0,1c-0.2,2.3-2.3,3.9-4.5,3.7
			c-0.8-0.1-1.6-0.4-2.2-0.9c-0.2-0.1-0.4-0.3-0.5-0.5c2.5,3.8,5.6,7,9.4,9.5c1.2,1,2.6,1.8,4.1,2.4c6.3,2.7,13.6,1.6,18.8-2.9
			l0.4-0.3c0.7-0.6,1.4-1.3,2-2c1-1.2,1.8-2.5,2.4-4C502.7,604.4,500.9,597.2,495.7,592.9z"/>
		<path class="st2" d="M606.6,527.6c-6.6-5.4-16.3-4.5-21.8,2.1c-2.3,2.8-3.5,6.2-3.5,9.8c0,0.3,0,0.7,0,1c-0.2,2-1.8,3.5-3.7,3.7
			c-1.1,0.1-2.2-0.2-3-0.9c-0.2-0.2-0.3-0.3-0.5-0.5c2.5,3.8,5.6,7,9.4,9.5c6.8,5.3,16.3,5.1,22.9-0.5l0.4-0.3c0.7-0.6,1.4-1.3,2-2
			c1-1.2,1.8-2.6,2.4-4C613.6,539.2,611.8,532,606.6,527.6z"/>
		<path class="st2" d="M694.3,487.1c1.2,1,2.6,1.8,4.1,2.4c6.3,2.7,13.6,1.6,18.8-2.9l0.4-0.3c0.7-0.6,1.4-1.3,2-2
			c1-1.2,1.8-2.6,2.4-4c3.2-7.9-0.6-17-8.5-20.2c-7.9-3.2-17,0.6-20.2,8.5c-0.7,1.8-1.1,3.8-1.1,5.8c0,0.3,0,0.7,0,1
			c-0.2,2.3-2.3,3.9-4.5,3.7c-0.8-0.1-1.6-0.4-2.2-0.9c-0.2-0.2-0.3-0.3-0.5-0.5C687.4,481.3,690.6,484.6,694.3,487.1z"/>
		<path class="st2" d="M805.2,421.9c6.8,5.3,16.4,5.1,22.9-0.5l0.4-0.4c0.7-0.6,1.4-1.3,2-2c1-1.2,1.8-2.6,2.4-4
			c3.2-7.9-0.6-17-8.5-20.2c-7.9-3.2-17,0.6-20.2,8.5c-0.7,1.8-1.1,3.8-1.1,5.8c0,0.3,0,0.6,0,1c-0.1,0.8-0.4,1.6-0.9,2.2
			c-1.4,1.7-4,2-5.8,0.5c-0.2-0.1-0.4-0.3-0.5-0.5C798.4,416.1,801.5,419.3,805.2,421.9z"/>
		<path class="st2" d="M916.2,356.7c1.2,1,2.6,1.8,4.1,2.4c6.3,2.7,13.6,1.6,18.8-2.9l0.4-0.4c0.7-0.6,1.4-1.3,2-2
			c5.4-6.6,4.5-16.4-2.1-21.8c-6.6-5.4-16.4-4.5-21.8,2.1c-2.3,2.7-3.5,6.2-3.5,9.7c0,0.3,0,0.6,0,1c-0.2,2-1.8,3.5-3.7,3.7
			c-1.1,0.1-2.2-0.2-3-0.9c-0.2-0.2-0.3-0.3-0.5-0.5C909.2,350.9,912.4,354.1,916.2,356.7z"/>
		<path class="st2" d="M1027.1,291.4c1.2,1,2.6,1.8,4.1,2.4c6.3,2.7,13.6,1.6,18.8-2.9l0.4-0.4c0.7-0.6,1.4-1.3,2-2
			c1-1.2,1.8-2.6,2.4-4c3.2-7.9-0.6-17-8.5-20.2c-7.9-3.2-17,0.6-20.2,8.5c-0.7,1.8-1.1,3.8-1.1,5.8c0,0.3,0,0.6,0,1
			c-0.2,2-1.8,3.5-3.7,3.7c-1.1,0.1-2.2-0.2-3-0.9c-0.2-0.2-0.3-0.3-0.5-0.5C1020.2,285.7,1023.4,288.9,1027.1,291.4z"/>
		<path class="st2" d="M361.9,746.1c-6.6-5.4-16.3-4.5-21.8,2.1c0,0,0,0,0,0c-1.1,1.3-1.9,2.8-2.5,4.3h28.9
			C365.6,750,364,747.8,361.9,746.1z"/>
		<path class="st2" d="M472.8,680.9c-6.6-5.4-16.4-4.5-21.8,2.1c-2.3,2.7-3.5,6.2-3.5,9.7c0,0.3,0,0.7,0,1c-0.2,2.3-2.2,3.9-4.5,3.7
			c-0.8-0.1-1.6-0.4-2.2-0.9c-0.2-0.2-0.3-0.3-0.5-0.5c2.5,3.8,5.6,7,9.4,9.5c1.2,1,2.6,1.8,4.1,2.4c6.3,2.7,13.6,1.6,18.8-2.9
			l0.4-0.3c0.7-0.6,1.4-1.3,2-2c1-1.2,1.8-2.5,2.4-4C479.9,692.5,478,685.2,472.8,680.9z"/>
		<path class="st2" d="M583.7,615.7c-6.6-5.4-16.4-4.5-21.8,2.1c-2.3,2.7-3.5,6.2-3.5,9.8c0,0.3,0,0.7,0,1c-0.2,2-1.8,3.5-3.7,3.7
			c-1.1,0.1-2.2-0.2-3-0.9c-0.2-0.2-0.3-0.3-0.5-0.5c2.5,3.8,5.6,7,9.4,9.5c1.2,1,2.6,1.8,4.1,2.4c6.3,2.7,13.6,1.6,18.8-2.9
			l0.4-0.3c0.7-0.6,1.4-1.3,2-2C591.2,630.9,590.3,621.2,583.7,615.7C583.7,615.7,583.7,615.7,583.7,615.7L583.7,615.7z"/>
		<path class="st2" d="M671.5,575.1c6.8,5.3,16.3,5.1,22.9-0.5l0.4-0.3c0.7-0.6,1.4-1.3,2-2c1-1.2,1.8-2.6,2.4-4
			c3.2-7.9-0.7-17-8.6-20.2c-7.9-3.2-17,0.7-20.2,8.6c-0.7,1.8-1.1,3.7-1.1,5.6c0,0.3,0,0.7,0,1c-0.2,2-1.8,3.5-3.7,3.7
			c-1.1,0.1-2.2-0.2-3-0.9c-0.2-0.1-0.4-0.3-0.5-0.5C664.5,569.4,667.7,572.6,671.5,575.1z"/>
		<path class="st2" d="M782.4,509.9c1.2,1,2.6,1.8,4.1,2.4c6.3,2.7,13.6,1.6,18.8-2.9l0.4-0.3c0.7-0.6,1.4-1.3,2-2
			c1-1.2,1.8-2.5,2.4-4c3.2-7.9-0.6-17-8.5-20.2s-17,0.6-20.2,8.5c-0.7,1.8-1.1,3.8-1.1,5.7c0,0.3,0,0.7,0,1
			c-0.2,2.3-2.3,3.9-4.5,3.7c-0.8-0.1-1.6-0.4-2.2-0.9c-0.2-0.2-0.3-0.3-0.5-0.5C775.5,504.2,778.7,507.4,782.4,509.9z"/>
		<path class="st2" d="M893.3,444.7c1.2,1,2.6,1.8,4.1,2.4c6.3,2.7,13.6,1.6,18.8-2.9l0.4-0.3c6.5-5.5,7.4-15.3,1.9-21.8
			c-5.5-6.5-15.3-7.4-21.8-1.9c-0.7,0.6-1.4,1.2-1.9,2c-2.3,2.7-3.5,6.2-3.5,9.8c0,0.3,0,0.6,0,1c-0.1,0.8-0.4,1.6-0.9,2.2
			c-0.7,0.8-1.7,1.4-2.8,1.5c-1.1,0.1-2.2-0.2-3-0.9c-0.2-0.2-0.3-0.3-0.5-0.5C886.4,439,889.6,442.2,893.3,444.7z"/>
		<path class="st2" d="M1004.2,379.5c1.2,1,2.6,1.8,4.1,2.4c6.3,2.7,13.6,1.6,18.8-2.9l0.4-0.3c0.7-0.6,1.4-1.3,2-2
			c5.4-6.6,4.5-16.3-2-21.7c0,0,0,0-0.1-0.1c-6.6-5.4-16.3-4.5-21.8,2.1c-2.3,2.8-3.5,6.2-3.5,9.8c0,0.3,0,0.6,0,1
			c-0.2,2-1.8,3.5-3.7,3.7c-1.1,0.1-2.2-0.2-3-0.9c-0.2-0.1-0.4-0.3-0.5-0.5C997.3,373.8,1000.5,377,1004.2,379.5z"/>
		<path class="st2" d="M535.5,715.6c0,0.3,0,0.7,0,1c-0.2,2-1.8,3.5-3.7,3.7c-1.1,0.1-2.2-0.2-3-0.9c-0.2-0.2-0.3-0.3-0.5-0.5
			c2.5,3.8,5.6,7,9.3,9.5c6.8,5.3,16.4,5.1,22.9-0.5c0.1-0.1,0.3-0.2,0.4-0.3c4.4-3.7,6.4-9.4,5.2-15h-30.2
			C535.7,713.6,535.6,714.6,535.5,715.6z"/>
		<path class="st2" d="M560.9,703.8c-6.6-5.4-16.3-4.5-21.8,2c-1.6,1.9-2.7,4.3-3.2,6.7h30.3C565.5,709.1,563.6,706,560.9,703.8z"/>
		<path class="st2" d="M648.6,663.2c1.2,1,2.6,1.8,4.1,2.4c6.3,2.7,13.6,1.6,18.8-2.9c0.1-0.1,0.3-0.2,0.4-0.3
			c6.5-5.5,7.4-15.3,1.9-21.8s-15.3-7.4-21.8-1.9c-3.5,2.9-5.5,7.2-5.5,11.8c0,0.3,0,0.7,0,1c-0.2,2-1.8,3.5-3.7,3.7
			c-1.1,0.1-2.2-0.2-3-0.9c-0.2-0.2-0.3-0.3-0.5-0.5C641.7,657.5,644.9,660.7,648.6,663.2z"/>
		<path class="st2" d="M759.5,598c1.2,1,2.6,1.8,4.1,2.4c6.3,2.7,13.6,1.6,18.8-2.9l0.4-0.3c0.7-0.6,1.4-1.3,2-2
			c1-1.2,1.8-2.6,2.4-4c3.2-7.9-0.6-17-8.5-20.2c-6.3-2.5-13.4-0.7-17.8,4.5c-2.3,2.7-3.5,6.2-3.5,9.8c0,0.3,0,0.7,0,1
			c-0.1,0.8-0.4,1.6-0.9,2.2c-0.7,0.9-1.7,1.4-2.8,1.5c-1.1,0.1-2.2-0.2-3-0.9c-0.2-0.2-0.3-0.3-0.5-0.5
			C752.6,592.2,755.8,595.5,759.5,598z"/>
		<path class="st2" d="M870.5,532.8c1.2,1,2.6,1.8,4.1,2.4c6.3,2.7,13.6,1.6,18.8-2.9c0.1-0.1,0.3-0.2,0.4-0.3
			c6.6-5.5,7.4-15.3,1.9-21.8c-5.5-6.6-15.3-7.4-21.8-1.9c-3.5,2.9-5.5,7.2-5.5,11.8c0,0.3,0,0.7,0,1c-0.1,0.8-0.4,1.6-0.9,2.2
			c-1.4,1.8-4,2-5.8,0.6c0,0,0,0,0,0c-0.2-0.1-0.3-0.3-0.5-0.5C863.6,527,866.7,530.3,870.5,532.8z"/>
		<path class="st2" d="M981.4,467.6c6.8,5.3,16.4,5.1,22.9-0.5l0.4-0.3c0.7-0.6,1.4-1.3,2-2c1-1.2,1.8-2.6,2.4-4
			c3.2-7.9-0.6-17-8.5-20.2c-7.9-3.2-17,0.6-20.2,8.5c-0.7,1.8-1.1,3.8-1.1,5.7c0,0.3,0,0.7,0,1c-0.2,2-1.8,3.5-3.7,3.7
			c-1.1,0.1-2.2-0.2-3-0.9c-0.2-0.2-0.3-0.3-0.5-0.5C974.5,461.8,977.7,465.1,981.4,467.6z"/>
		<path class="st2" d="M1093.7,379.8c-2.3,2.7-3.5,6.2-3.5,9.8c0,0.3,0,0.6,0,1c-0.2,2-1.8,3.5-3.7,3.7c-1.1,0.1-2.2-0.2-3-0.9
			c-0.2-0.2-0.3-0.3-0.5-0.5c2.5,3.8,5.6,7,9.4,9.5c1.2,1,2.6,1.8,4.1,2.4c1.6,0.7,3.3,1.1,5.1,1.3v-31.3
			C1098.4,375.6,1095.7,377.4,1093.7,379.8z"/>
		<path class="st2" d="M649,750.4c6.5-5.5,7.4-15.3,1.9-21.8c-5.5-6.5-15.3-7.4-21.8-1.9c-3.5,2.9-5.5,7.2-5.5,11.7c0,0.3,0,0.7,0,1
			c-0.2,2.3-2.3,3.9-4.5,3.7c-0.8-0.1-1.6-0.4-2.2-0.9c-0.2-0.2-0.3-0.3-0.5-0.5c2.5,3.8,5.6,7,9.4,9.5c0.6,0.5,1.2,0.9,1.9,1.3
			h18.5c0.9-0.5,1.7-1.1,2.5-1.8L649,750.4z"/>
		<path class="st2" d="M736.7,686c1.2,1,2.6,1.8,4.1,2.4c6.3,2.7,13.6,1.6,18.8-2.9l0.4-0.3c0.7-0.6,1.4-1.3,2-2
			c1-1.2,1.8-2.6,2.4-4c3.2-7.9-0.6-17-8.5-20.2c-7.9-3.2-17,0.6-20.2,8.5c-0.7,1.8-1.1,3.8-1.1,5.8c0,0.3,0,0.7,0,1
			c-0.1,0.8-0.4,1.6-0.9,2.2c-1.4,1.7-4,2-5.8,0.5c-0.2-0.1-0.4-0.3-0.5-0.5C729.8,680.3,733,683.5,736.7,686z"/>
		<path class="st2" d="M847.6,620.8c6.8,5.3,16.3,5.1,22.9-0.5l0.4-0.3c1.9-1.6,3.4-3.7,4.4-6c3.2-7.9-0.5-17-8.4-20.2
			s-17,0.5-20.2,8.4c-0.8,1.8-1.2,3.8-1.2,5.8c0,0.3,0,0.7,0,1c-0.2,2.3-2.3,3.9-4.5,3.7c-0.8-0.1-1.6-0.4-2.2-0.9
			c-0.2-0.2-0.3-0.3-0.5-0.5C840.7,615.1,843.9,618.3,847.6,620.8z"/>
		<path class="st2" d="M958.5,555.6c1.2,1,2.6,1.8,4.1,2.4c6.3,2.7,13.6,1.6,18.8-2.9l0.4-0.3c0.7-0.6,1.4-1.3,2-2
			c1-1.2,1.8-2.6,2.4-4c3.2-7.9-0.6-17-8.5-20.2c-7.9-3.2-17,0.6-20.2,8.5c-0.7,1.8-1.1,3.8-1.1,5.8c0,0.3,0,0.7,0,1
			c-0.2,2-1.8,3.5-3.7,3.7c-1.1,0.1-2.2-0.2-3-0.9c-0.2-0.2-0.3-0.3-0.5-0.5C951.6,549.9,954.8,553.1,958.5,555.6z"/>
		<path class="st2" d="M1069.4,490.4c6.8,5.3,16.4,5.1,22.9-0.5l0.4-0.3c0.7-0.6,1.4-1.3,2-2c5.4-6.6,4.5-16.4-2.1-21.8
			c-6.6-5.4-16.4-4.5-21.8,2.1c-2.3,2.7-3.5,6.2-3.5,9.7c0,0.3,0,0.7,0,1c-0.2,2.3-2.3,3.9-4.5,3.7c-0.8-0.1-1.6-0.4-2.2-0.9
			c-0.2-0.2-0.3-0.3-0.5-0.5C1062.5,484.6,1065.7,487.9,1069.4,490.4z"/>
		<path class="st2" d="M737,749.5c-6.6-5.4-16.4-4.5-21.8,2.1c-0.3,0.3-0.5,0.7-0.7,1h25.4C739,751.4,738.1,750.4,737,749.5z"/>
		<path class="st2" d="M838.5,712.5h-5.2C835.1,712.8,836.8,712.8,838.5,712.5z"/>
		<path class="st2" d="M848,708.1c0.7-0.6,1.4-1.3,2-2c1-1.2,1.8-2.6,2.4-4c3.2-7.9-0.6-17-8.5-20.2c-7.9-3.2-17,0.6-20.2,8.5
			c-0.7,1.8-1.1,3.8-1.1,5.8c0,0.3,0,0.7,0,1c-0.1,0.8-0.4,1.6-0.9,2.2c-1.4,1.7-4,2-5.8,0.6c0,0,0,0,0,0c-0.2-0.2-0.3-0.3-0.5-0.5
			c2.5,3.8,5.6,7,9.4,9.5c2.5,1.9,5.5,3.2,8.6,3.6h5.2c3.4-0.5,6.5-1.9,9.1-4.1L848,708.1z"/>
		<path class="st2" d="M937,621.1c-2.3,2.7-3.5,6.2-3.5,9.8c0,0.3,0,0.7,0,1c-0.2,2-1.8,3.5-3.7,3.7c-1.1,0.1-2.2-0.2-3-0.9
			c-0.2-0.1-0.4-0.3-0.5-0.5c2.5,3.8,5.6,7,9.3,9.5c6.8,5.3,16.3,5.1,22.9-0.5c0.1-0.1,0.3-0.2,0.4-0.3c0.7-0.6,1.4-1.3,2-2
			c5.2-6.8,3.8-16.5-3-21.7C951.5,614.3,942.4,615.2,937,621.1z"/>
		<path class="st2" d="M1048,555.9c-2.3,2.7-3.5,6.2-3.5,9.8c0,0.3,0,0.7,0,1c-0.1,0.8-0.4,1.6-0.9,2.2c-1.5,1.7-4,2-5.8,0.5
			c-0.2-0.2-0.3-0.3-0.5-0.5c2.5,3.8,5.6,7,9.4,9.5c1.2,1,2.6,1.8,4.1,2.4c6.3,2.7,13.6,1.6,18.8-2.9l0.4-0.3c0.7-0.6,1.4-1.3,2-2
			c1-1.2,1.8-2.5,2.4-4c3.2-7.9-0.5-17-8.5-20.2C1059.5,548.9,1052.3,550.7,1048,555.9L1048,555.9z"/>
		<path class="st2" d="M910.7,719c0,0.3,0,0.7,0,1c-0.2,2-1.8,3.5-3.7,3.7c-1.1,0.1-2.2-0.2-3-0.9c-0.2-0.2-0.3-0.3-0.5-0.5
			c2.5,3.8,5.6,7,9.4,9.5c1.2,1,2.6,1.8,4.1,2.4c6.3,2.7,13.6,1.6,18.8-2.9c0.1-0.1,0.3-0.2,0.4-0.3c0.7-0.6,1.4-1.3,2-2
			c1-1.2,1.8-2.6,2.4-4c1.6-4,1.5-8.5-0.3-12.4h-28.1C911.2,714.6,910.7,716.8,910.7,719z"/>
		<path class="st2" d="M936,707.1c-6.6-5.4-16.3-4.5-21.8,2.1c0,0,0,0,0,0c-0.8,1-1.5,2.1-2.1,3.3h28.1
			C939.2,710.5,937.8,708.6,936,707.1z"/>
		<path class="st2" d="M1046.9,641.9c-6.6-5.4-16.4-4.5-21.8,2.1c-2.3,2.7-3.5,6.2-3.5,9.8c0,0.3,0,0.7,0,1c-0.2,2-1.8,3.5-3.7,3.7
			c-1.1,0.1-2.2-0.2-3-0.9c-0.2-0.2-0.3-0.3-0.5-0.5c2.5,3.8,5.6,7,9.4,9.5c1.2,1,2.6,1.8,4.1,2.4c6.3,2.7,13.6,1.6,18.8-2.9
			l0.4-0.3c0.7-0.6,1.4-1.3,2-2c1-1.2,1.8-2.6,2.4-4C1053.9,653.5,1052.1,646.2,1046.9,641.9z"/>
		<path class="st2" d="M1028.5,747.8c3.2-7.9-0.6-17-8.5-20.2c-7.9-3.2-17,0.6-20.2,8.5c-0.7,1.8-1.1,3.8-1.1,5.8c0,0.3,0,0.7,0,1
			c-0.1,0.8-0.4,1.6-0.9,2.2c-1.5,1.7-4,2-5.8,0.5c-0.2-0.1-0.4-0.3-0.5-0.5c1.8,2.8,4.1,5.3,6.6,7.5h27.3c0.2-0.2,0.5-0.5,0.7-0.8
			C1027.1,750.6,1027.9,749.2,1028.5,747.8z"/>
		<path class="st2" d="M1101.4,752.5v-3.2c-3.2,0.2-6.2,1.3-8.7,3.2L1101.4,752.5z"/>
	</g>
</g>
</svg>
