<svg xmlns="http://www.w3.org/2000/svg" viewBox="0 0 1101.69 659.79"><defs><style>.cls-1{fill:#fff;}.cls-2{fill:#f4833a;}.cls-3{fill:#2ba4d2;}</style></defs><title>Asset 3</title><g id="Layer_2" data-name="Layer 2"><g id="Layer_1-2" data-name="Layer 1"><path class="cls-1" d="M749.29,8.37a143.68,143.68,0,0,0,1.34,175.76,143.79,143.79,0,1,1-30.25-.29,143.73,143.73,0,0,1-1.3-174.73A142.72,142.72,0,0,1,679,0H377.83c3.22,4.3,6.13,7,8.63,7.76,38.36,11.4,71.92,39.76,84.32,76.06,12,35.06,11,66,26.1,125.16,14.48,56.65,37.13,138.3,78.26,210.72C633.9,523.15,776,581,879.27,529.28c22.72-15.28,39.79-32.63,58-51.15A540.3,540.3,0,0,0,1093.17,93.66,546,546,0,0,0,1084.42,0H782.27A142.62,142.62,0,0,1,749.29,8.37Z"/><path class="cls-2" d="M690.13,96.69a143.06,143.06,0,0,0,30.25,87.15c4.16-.39,8.37-.62,12.62-.65a146.65,146.65,0,0,1,17.63.94A143.68,143.68,0,0,1,749.29,8.37a142.62,142.62,0,0,0,33-8.37H679a142.72,142.72,0,0,0,40.12,9.11A143.1,143.1,0,0,0,690.13,96.69Z"/><path class="cls-3" d="M750.63,184.13a146.65,146.65,0,0,0-17.63-.94c-4.25,0-8.46.26-12.62.65a143.7,143.7,0,1,0,30.25.29Zm86.25,60.77q2.25,2.64,4.35,5.44a111.58,111.58,0,0,1,7.07,10.6,113.75,113.75,0,0,1,5.83,11.35c.94,2.13,1.83,4.28,2.63,6.44.25.64.47,1.28.69,1.93a7.28,7.28,0,0,1,0,2.94,11.57,11.57,0,0,1-1.31,2.92,11.09,11.09,0,0,1-3.88,3.91c-.46.24-.91.43-1.35.61l-3.08.85L754.48,317.8l-.75.21a1.47,1.47,0,0,1-1.33-.73,1.48,1.48,0,0,1,0-1.51l.56-.55,68.08-69,2.24-2.27a10.57,10.57,0,0,1,1.2-.88,11.12,11.12,0,0,1,5.29-1.5,11.26,11.26,0,0,1,3.19.28,7.21,7.21,0,0,1,2.58,1.46C836,243.86,836.45,244.38,836.88,244.9Zm-184.8-14.82a7.1,7.1,0,0,1,1.45-2.56c.5-.46,1-.91,1.54-1.35q2.64-2.25,5.44-4.34a110.2,110.2,0,0,1,22-12.89c2.14-1,4.28-1.84,6.45-2.65.63-.24,1.27-.47,1.92-.68a6.94,6.94,0,0,1,2.94,0,11.73,11.73,0,0,1,2.93,1.29,10.06,10.06,0,0,1,4.52,5.25l.85,3.07L728,308.58l.21.75a1.46,1.46,0,0,1-2.24,1.3l-.55-.54-69-68.08-2.26-2.24a12,12,0,0,1-.88-1.2,11.13,11.13,0,0,1-1.5-5.31A10.94,10.94,0,0,1,652.08,230.08Zm-37,52.39c.22-.64.43-1.29.66-1.93q1.17-3.27,2.54-6.48a110.06,110.06,0,0,1,12.57-22.14q2.05-2.83,4.25-5.51c.44-.53.88-1,1.33-1.56a7.18,7.18,0,0,1,2.54-1.49,11.33,11.33,0,0,1,3.18-.34,11.08,11.08,0,0,1,5.32,1.43,12,12,0,0,1,1.22.85l2.27,2.24,69.12,67.92.56.54a1.53,1.53,0,0,1,0,1.52,1.5,1.5,0,0,1-1.32.73l-.75-.19-93.76-24.49-3.09-.8a13.43,13.43,0,0,1-1.36-.6,11.92,11.92,0,0,1-5.29-6.75A7.15,7.15,0,0,1,615.1,282.47Zm-4.29,68.68a7.05,7.05,0,0,1-1.5-2.55c-.14-.66-.27-1.33-.39-2-.42-2.28-.77-4.56-1-6.89A113.18,113.18,0,0,1,607,327a111.7,111.7,0,0,1,.65-12.74q.36-3.48.93-6.9c.11-.67.23-1.34.37-2a7.34,7.34,0,0,1,1.45-2.57A11.3,11.3,0,0,1,613,300.9a11.17,11.17,0,0,1,5.32-1.42,11.81,11.81,0,0,1,1.47.13l3.1.8,93.81,24.26.76.19a1.5,1.5,0,0,1,.79,1.3,1.51,1.51,0,0,1-.77,1.3l-.76.2-93.43,25.68-3.08.84a10.31,10.31,0,0,1-1.48.16,12,12,0,0,1-8-3.19Zm38.62,58.25a8.59,8.59,0,0,1-1.21.89,12.06,12.06,0,0,1-8.47,1.21,7,7,0,0,1-2.57-1.46c-.46-.49-.9-1-1.34-1.54-1.51-1.76-2.94-3.58-4.35-5.43a112.94,112.94,0,0,1-7.06-10.61,108.76,108.76,0,0,1-5.84-11.35c-.94-2.13-1.82-4.28-2.62-6.44-.26-.63-.49-1.27-.7-1.92a7.15,7.15,0,0,1,0-2.95,10.6,10.6,0,0,1,1.31-2.92,11,11,0,0,1,3.88-3.9,11.57,11.57,0,0,1,1.35-.62l3.07-.86,93.39-25.89.75-.21a1.48,1.48,0,0,1,1.33.73,1.51,1.51,0,0,1,0,1.51l-.56.55-68.07,68.95Zm78.78-64.46-24.47,93.75-.81,3.07a9.35,9.35,0,0,1-.61,1.38,11.14,11.14,0,0,1-3.83,3.94,10.85,10.85,0,0,1-2.91,1.35,7.15,7.15,0,0,1-3,0c-.64-.21-1.28-.43-1.93-.67-2.18-.77-4.34-1.62-6.48-2.52a113.32,113.32,0,0,1-11.43-5.66,111.47,111.47,0,0,1-10.72-6.91c-1.88-1.38-3.72-2.8-5.5-4.26-.53-.42-1-.87-1.56-1.32a7.38,7.38,0,0,1-1.49-2.55,11.2,11.2,0,0,1-.33-3.19,11,11,0,0,1,1.42-5.31,12.35,12.35,0,0,1,.85-1.21l2.24-2.28,67.92-69.12.55-.55a1.48,1.48,0,0,1,1.51,0,1.51,1.51,0,0,1,.74,1.33ZM738,307.31a1.46,1.46,0,0,1-1.3.79,1.51,1.51,0,0,1-1.3-.78l-.2-.74-25.67-93.44-.84-3.07a12.13,12.13,0,0,1-.17-1.49,11.16,11.16,0,0,1,1.36-5.33,10.49,10.49,0,0,1,1.84-2.62,7.11,7.11,0,0,1,2.55-1.5c.65-.14,1.32-.27,2-.38,2.29-.43,4.57-.77,6.89-1.05q4.33-.52,8.78-.72c1.31-.06,2.62-.1,3.94-.1a111.83,111.83,0,0,1,12.74.63c2.31.24,4.62.55,6.89.93.67.11,1.35.24,2,.37a7,7,0,0,1,2.57,1.46,11.2,11.2,0,0,1,1.87,2.58,11,11,0,0,1,1.44,5.32,11.79,11.79,0,0,1-.14,1.48l-.8,3.09-1.72,6.65-22.54,87.17Zm6.78,1.89.21-.75,22.29-85.4,2.19-8.35.81-3.09a9.55,9.55,0,0,1,.6-1.36,10.75,10.75,0,0,1,2.54-3,11.92,11.92,0,0,1,1.3-.94,10.48,10.48,0,0,1,2.9-1.35,7.15,7.15,0,0,1,3,0c.64.21,1.29.43,1.93.67,2.18.78,4.34,1.62,6.48,2.54a111.06,111.06,0,0,1,11.43,5.64,112.24,112.24,0,0,1,10.72,6.92q2.83,2.06,5.5,4.26.79.64,1.56,1.32a7.12,7.12,0,0,1,1.49,2.54A11.24,11.24,0,0,1,820,232c0,.22,0,.44,0,.65a9.51,9.51,0,0,1-2.18,5.81l-.06.07-2.23,2.28L747.6,309.93l-.54.56a1.46,1.46,0,0,1-1.52,0A1.51,1.51,0,0,1,744.8,309.2Zm76.85,114.11a7,7,0,0,1-1.45,2.56c-.5.45-1,.9-1.55,1.34-1.75,1.5-3.57,2.94-5.43,4.35a113.68,113.68,0,0,1-10.61,7.07,110.39,110.39,0,0,1-11.34,5.82q-3.21,1.43-6.45,2.64c-.63.25-1.27.47-1.92.69a7.33,7.33,0,0,1-2.95,0,11.41,11.41,0,0,1-2.93-1.31,11.2,11.2,0,0,1-3.89-3.88,13.5,13.5,0,0,1-.62-1.35l-.85-3.08-25.9-93.37-.21-.75a1.48,1.48,0,0,1,.73-1.34,1.5,1.5,0,0,1,1.52,0l.54.56,68.95,68.08,2.26,2.24a8.59,8.59,0,0,1,.89,1.21,11.93,11.93,0,0,1,1.21,8.48Zm37-52.39c-.2.64-.43,1.28-.67,1.93-.77,2.18-1.62,4.34-2.52,6.48a113.47,113.47,0,0,1-12.57,22.14c-1.38,1.89-2.8,3.72-4.26,5.51-.43.53-.88,1-1.32,1.56a7.23,7.23,0,0,1-2.55,1.49,12,12,0,0,1-8.5-1.09,12.35,12.35,0,0,1-1.21-.85l-2.28-2.24-69.12-67.92-.55-.55a1.44,1.44,0,0,1,0-1.51,1.5,1.5,0,0,1,1.32-.75l.75.21,93.76,24.49,3.07.8a8.31,8.31,0,0,1,1.37.61,11.08,11.08,0,0,1,4,3.83,11.42,11.42,0,0,1,1.35,2.9A7.2,7.2,0,0,1,858.62,370.92Zm6-25.58c-.09.68-.23,1.34-.36,2a7.26,7.26,0,0,1-1.45,2.57,12.21,12.21,0,0,1-7.91,3.31,13.57,13.57,0,0,1-1.47-.14l-3.1-.8L756.5,328l-.75-.19a1.46,1.46,0,0,1-.79-1.3,1.49,1.49,0,0,1,.77-1.3l.76-.2,93.43-25.68,3.08-.83a10.15,10.15,0,0,1,1.48-.17,11.16,11.16,0,0,1,5.33,1.35,11.54,11.54,0,0,1,2.62,1.84,7.35,7.35,0,0,1,1.5,2.55c.14.66.27,1.33.38,2q.63,3.4,1.05,6.88a110.61,110.61,0,0,1,.19,25.46C865.3,340.77,865,343.07,864.61,345.34Z"/><path class="cls-1" d="M620.24,354.18l3.08-.84,93.43-25.68.76-.2a1.51,1.51,0,0,0,.77-1.3,1.5,1.5,0,0,0-.79-1.3l-.76-.19-93.81-24.26-3.1-.8a11.81,11.81,0,0,0-1.47-.13A11.17,11.17,0,0,0,613,300.9a11.3,11.3,0,0,0-2.59,1.88,7.34,7.34,0,0,0-1.45,2.57c-.14.67-.26,1.34-.37,2q-.57,3.42-.93,6.9A111.7,111.7,0,0,0,607,327a113.18,113.18,0,0,0,.84,12.71c.27,2.33.62,4.61,1,6.89.12.67.25,1.34.39,2a7.05,7.05,0,0,0,1.5,2.55,12,12,0,0,0,8,3.19A10.31,10.31,0,0,0,620.24,354.18Z"/><path class="cls-1" d="M616.47,288.33a11.36,11.36,0,0,0,3.95,3.84,13.43,13.43,0,0,0,1.36.6l3.09.8,93.76,24.49.75.19a1.5,1.5,0,0,0,1.32-.73,1.53,1.53,0,0,0,0-1.52l-.56-.54L651,247.54l-2.27-2.24a12,12,0,0,0-1.22-.85,11.08,11.08,0,0,0-5.32-1.43,11.33,11.33,0,0,0-3.18.34,7.18,7.18,0,0,0-2.54,1.49c-.45.52-.89,1-1.33,1.56q-2.19,2.67-4.25,5.51a110.06,110.06,0,0,0-12.57,22.14q-1.37,3.21-2.54,6.48c-.23.64-.44,1.29-.66,1.93a7.15,7.15,0,0,0,0,2.95A11.26,11.26,0,0,0,616.47,288.33Z"/><path class="cls-1" d="M653.29,238.57a12,12,0,0,0,.88,1.2l2.26,2.24,69,68.08.55.54a1.46,1.46,0,0,0,2.24-1.3l-.21-.75-25.9-93.38-.85-3.07a10.06,10.06,0,0,0-4.52-5.25,11.73,11.73,0,0,0-2.93-1.29,6.94,6.94,0,0,0-2.94,0c-.65.21-1.29.44-1.92.68-2.17.81-4.31,1.69-6.45,2.65a110.2,110.2,0,0,0-22,12.89q-2.81,2.08-5.44,4.34c-.52.44-1,.89-1.54,1.35a7.1,7.1,0,0,0-1.45,2.56,10.94,10.94,0,0,0-.29,3.18A11.13,11.13,0,0,0,653.29,238.57Z"/><path class="cls-1" d="M762,202.85a11.2,11.2,0,0,0-1.87-2.58,7,7,0,0,0-2.57-1.46c-.66-.13-1.34-.26-2-.37-2.27-.38-4.58-.69-6.89-.93a111.83,111.83,0,0,0-12.74-.63c-1.32,0-2.63,0-3.94.1q-4.44.2-8.78.72c-2.32.28-4.6.62-6.89,1.05-.67.11-1.34.24-2,.38a7.11,7.11,0,0,0-2.55,1.5,10.49,10.49,0,0,0-1.84,2.62,11.16,11.16,0,0,0-1.36,5.33,12.13,12.13,0,0,0,.17,1.49l.84,3.07,25.67,93.44.2.74a1.51,1.51,0,0,0,1.3.78,1.46,1.46,0,0,0,1.3-.79l.19-.75,22.54-87.17,1.72-6.65.8-3.09a11.79,11.79,0,0,0,.14-1.48A11,11,0,0,0,762,202.85Z"/><path class="cls-1" d="M819.7,228.82a7.12,7.12,0,0,0-1.49-2.54q-.76-.67-1.56-1.32-2.67-2.21-5.5-4.26a112.24,112.24,0,0,0-10.72-6.92A111.06,111.06,0,0,0,789,208.14c-2.14-.92-4.3-1.76-6.48-2.54-.64-.24-1.29-.46-1.93-.67a7.15,7.15,0,0,0-3,0,10.48,10.48,0,0,0-2.9,1.35,11.92,11.92,0,0,0-1.3.94,10.75,10.75,0,0,0-2.54,3,9.55,9.55,0,0,0-.6,1.36l-.81,3.09-2.19,8.35L745,308.45l-.21.75a1.51,1.51,0,0,0,.74,1.32,1.46,1.46,0,0,0,1.52,0l.54-.56,67.92-69.12,2.23-2.28.06-.07a9.51,9.51,0,0,0,2.18-5.81c0-.21,0-.43,0-.65A11.24,11.24,0,0,0,819.7,228.82Z"/><path class="cls-1" d="M829.78,241.62a11.12,11.12,0,0,0-5.29,1.5,10.57,10.57,0,0,0-1.2.88l-2.24,2.27-68.08,69-.56.55a1.48,1.48,0,0,0,0,1.51,1.47,1.47,0,0,0,1.33.73l.75-.21,93.38-25.91,3.08-.85c.44-.18.89-.37,1.35-.61a11.09,11.09,0,0,0,3.88-3.91,11.57,11.57,0,0,0,1.31-2.92,7.28,7.28,0,0,0,0-2.94c-.22-.65-.44-1.29-.69-1.93-.8-2.16-1.69-4.31-2.63-6.44a113.75,113.75,0,0,0-5.83-11.35,111.58,111.58,0,0,0-7.07-10.6q-2.1-2.81-4.35-5.44c-.43-.52-.88-1-1.33-1.54A7.21,7.21,0,0,0,833,241.9,11.26,11.26,0,0,0,829.78,241.62Z"/><path class="cls-1" d="M853,298.53l-3.08.83L756.49,325l-.76.2a1.49,1.49,0,0,0-.77,1.3,1.46,1.46,0,0,0,.79,1.3l.75.19,93.82,24.26,3.1.8a13.57,13.57,0,0,0,1.47.14,12.21,12.21,0,0,0,7.91-3.31,7.26,7.26,0,0,0,1.45-2.57c.13-.67.27-1.33.36-2,.39-2.27.69-4.57.94-6.89a110.61,110.61,0,0,0-.19-25.46q-.42-3.48-1.05-6.88c-.11-.68-.24-1.35-.38-2a7.35,7.35,0,0,0-1.5-2.55,11.54,11.54,0,0,0-2.62-1.84,11.16,11.16,0,0,0-5.33-1.35A10.15,10.15,0,0,0,853,298.53Z"/><path class="cls-1" d="M857.25,365.06a11.08,11.08,0,0,0-4-3.83,8.31,8.31,0,0,0-1.37-.61l-3.07-.8L755.1,335.33l-.75-.21a1.5,1.5,0,0,0-1.32.75,1.44,1.44,0,0,0,0,1.51l.55.55,69.12,67.92,2.28,2.24a12.35,12.35,0,0,0,1.21.85,12,12,0,0,0,8.5,1.09,7.23,7.23,0,0,0,2.55-1.49c.44-.52.89-1,1.32-1.56,1.46-1.79,2.88-3.62,4.26-5.51a113.47,113.47,0,0,0,12.57-22.14c.9-2.14,1.75-4.3,2.52-6.48.24-.65.47-1.29.67-1.93a7.2,7.2,0,0,0,0-3A11.42,11.42,0,0,0,857.25,365.06Z"/><path class="cls-1" d="M820.44,414.83a8.59,8.59,0,0,0-.89-1.21l-2.26-2.24L748.34,343.3l-.54-.56a1.5,1.5,0,0,0-1.52,0,1.48,1.48,0,0,0-.73,1.34l.21.75,25.9,93.37.85,3.08a13.5,13.5,0,0,0,.62,1.35,11.2,11.2,0,0,0,3.89,3.88A11.41,11.41,0,0,0,780,447.8a7.33,7.33,0,0,0,2.95,0c.65-.22,1.29-.44,1.92-.69q3.24-1.21,6.45-2.64a110.39,110.39,0,0,0,11.34-5.82,113.68,113.68,0,0,0,10.61-7.07c1.86-1.41,3.68-2.85,5.43-4.35.53-.44,1.05-.89,1.55-1.34a7,7,0,0,0,1.45-2.56,11.93,11.93,0,0,0-1.21-8.48Z"/><path class="cls-1" d="M727.68,342.86a1.48,1.48,0,0,0-1.51,0l-.55.55L657.7,412.57l-2.24,2.28a12.35,12.35,0,0,0-.85,1.21,11,11,0,0,0-1.42,5.31,11.2,11.2,0,0,0,.33,3.19,7.38,7.38,0,0,0,1.49,2.55c.52.45,1,.9,1.56,1.32,1.78,1.46,3.62,2.88,5.5,4.26a111.47,111.47,0,0,0,10.72,6.91,113.32,113.32,0,0,0,11.43,5.66c2.14.9,4.3,1.75,6.48,2.52.65.24,1.29.46,1.93.67a7.15,7.15,0,0,0,3,0,10.85,10.85,0,0,0,2.91-1.35,11.14,11.14,0,0,0,3.83-3.94,9.35,9.35,0,0,0,.61-1.38l.81-3.07,24.47-93.75.21-.75A1.51,1.51,0,0,0,727.68,342.86Z"/><path class="cls-1" d="M720.31,337.64a1.51,1.51,0,0,0,0-1.51,1.48,1.48,0,0,0-1.33-.73l-.75.21L624.86,361.5l-3.07.86a11.57,11.57,0,0,0-1.35.62,11,11,0,0,0-3.88,3.9,10.6,10.6,0,0,0-1.31,2.92,7.15,7.15,0,0,0,0,2.95c.21.65.44,1.29.7,1.92.8,2.16,1.68,4.31,2.62,6.44a108.76,108.76,0,0,0,5.84,11.35,112.94,112.94,0,0,0,7.06,10.61c1.41,1.85,2.84,3.67,4.35,5.43.44.53.88,1.05,1.34,1.54a7,7,0,0,0,2.57,1.46,12.06,12.06,0,0,0,8.47-1.21,8.59,8.59,0,0,0,1.21-.89l2.25-2.26,68.07-68.95Z"/><path class="cls-2" d="M1094.9,0h-10.48a546,546,0,0,1,8.75,93.66A540.3,540.3,0,0,1,937.3,478.13c-18.24,18.52-35.31,35.87-58,51.15C776,581,633.9,523.15,575.14,419.7,534,347.28,511.36,265.63,496.88,209c-15.13-59.17-14.11-90.1-26.1-125.16-12.4-36.3-46-64.66-84.32-76.06C384,7,381.05,4.3,377.83,0H0V208.57A563.31,563.31,0,0,0,336.28,617.25,558.19,558.19,0,0,0,551,659.79l4.36,0A558.57,558.57,0,0,0,773.82,614,560.12,560.12,0,0,0,951.55,492.16a560.75,560.75,0,0,0,150.14-280.63V0Z"/></g></g></svg>