<svg xmlns="http://www.w3.org/2000/svg" viewBox="0 0 66.19 56.26"><defs><style>.cls-1{fill:#e4e4ea;}</style></defs><title>Asset 39</title><g id="Layer_2" data-name="Layer 2"><g id="Layer_1-2" data-name="Layer 1"><path class="cls-1" d="M64.5,18.42a28,28,0,0,0-50.33-4.75c-.3.5-.58,1-.85,1.54a7.37,7.37,0,0,1-3.47,2.61A7.43,7.43,0,0,1,.32,13.38,7.68,7.68,0,0,1,0,12.15,61.93,61.93,0,0,0,5.84,35.57,32.73,32.73,0,0,0,42,55.76l.91-.19a28.13,28.13,0,0,0,4.9-1.29,27.71,27.71,0,0,0,7.42-4.05A28,28,0,0,0,64.5,18.42Z"/></g></g></svg>