<svg xmlns="http://www.w3.org/2000/svg" viewBox="0 0 66.19 56.26"><defs><style>.cls-1{fill:#2ba4d2;}.cls-2{fill:none;stroke:#fff;stroke-miterlimit:10;stroke-width:1.5px;}</style></defs><title>Asset 5</title><g id="Layer_2" data-name="Layer 2"><g id="Layer_1-2" data-name="Layer 1"><path class="cls-1" d="M64.5,18.42a28,28,0,0,0-50.33-4.75c-.3.5-.58,1-.85,1.54a7.37,7.37,0,0,1-3.47,2.61A7.43,7.43,0,0,1,.32,13.38,7.68,7.68,0,0,1,0,12.15,61.93,61.93,0,0,0,5.84,35.57,32.73,32.73,0,0,0,42,55.76l.91-.19a28.13,28.13,0,0,0,4.9-1.29,27.71,27.71,0,0,0,7.42-4.05A28,28,0,0,0,64.5,18.42Z"/><line class="cls-2" x1="22.89" y1="18.27" x2="53.89" y2="18.27"/><line class="cls-2" x1="22.89" y1="28.41" x2="53.89" y2="28.41"/><line class="cls-2" x1="22.89" y1="38.54" x2="53.89" y2="38.54"/></g></g></svg>