<svg xmlns="http://www.w3.org/2000/svg" viewBox="0 0 222.4 106.19"><defs><style>.cls-1{fill:#fff;}.cls-2{fill:#2ba4d2;}.cls-3{fill:#f4833a;}.cls-4,.cls-5{fill:none;}.cls-4{stroke:#f4833a;stroke-miterlimit:10;stroke-width:2.25px;}</style></defs><title>Asset 2</title><g id="Layer_2" data-name="Layer 2"><g id="Layer_1-2" data-name="Layer 1"><circle class="cls-1" cx="108.19" cy="46.41" r="45.27" transform="translate(22.19 126.8) rotate(-66.29)"/><path class="cls-2" d="M220.71,39.17a28,28,0,0,0-50.33-4.75c-.3.51-.58,1-.85,1.55a7.5,7.5,0,0,1-3.47,2.61,7.45,7.45,0,0,1-9.52-4.44,8,8,0,0,1-.33-1.23,61.76,61.76,0,0,0,5.85,23.42,32.71,32.71,0,0,0,36.11,20.18c.31-.05.61-.12.91-.18a28,28,0,0,0,21.63-37.16Z"/><path class="cls-3" d="M58.46,50.26a7.59,7.59,0,0,1,.12,1.27A7.43,7.43,0,0,1,47,57.69c-.43-.4-.88-.79-1.33-1.16A28,28,0,1,0,28,106.19a28.92,28.92,0,0,0,5.05-.46l.92-.14a32.68,32.68,0,0,0,25.68-22.9A32,32,0,0,0,61,74.26,61.73,61.73,0,0,0,58.46,50.26Z"/><path class="cls-3" d="M100.33,1.82A45.27,45.27,0,0,0,79.21,81.19c-6.64-9.55-5-21.75,3.27-28.45,5.29-4.32,11.59-7.26,16-9.2,4.58-2,7.1-2.37,9.77-3.82a10.37,10.37,0,0,0,5-7.86,1.72,1.72,0,0,1,.52-.81c1.4,4.4,4.34,6.21,6.45,7.5,2.26,1.38,7.62,2.64,10.58,3.43s7.14,1.91,10.33,3.89c9.74,6.05,10.13,16.22,5.89,23.75a3.15,3.15,0,0,0-.22.47A45.27,45.27,0,0,0,100.33,1.82Z"/><circle class="cls-4" cx="108.19" cy="46.41" r="45.27" transform="translate(22.19 126.8) rotate(-66.29)"/><path class="cls-3" d="M141,55.71a11.79,11.79,0,1,1-13.66-9.56A11.79,11.79,0,0,1,141,55.71Z"/><path class="cls-3" d="M110.59,60a11.79,11.79,0,0,1,10.77,3.67c1.19,1.31,2.54,3.89,2.46,3.49A11.56,11.56,0,0,0,122.24,63a11.78,11.78,0,0,0-21.63,8.25c.07.41.43-2.34,1-3.94A11.78,11.78,0,0,1,110.59,60Z"/><path class="cls-1" d="M138.79,56.1a9.55,9.55,0,1,1-11.06-7.74A9.54,9.54,0,0,1,138.79,56.1Z"/><path class="cls-2" d="M103.76,62.28A11.79,11.79,0,1,1,90.1,52.72,11.79,11.79,0,0,1,103.76,62.28Z"/><path class="cls-4" d="M104,80.86s3.74,2.69,10.51,1.5,9.37-4.92,9.37-4.92"/><path class="cls-1" d="M92.6,54.18a.77.77,0,0,0-.18-.18.63.63,0,0,0-.23-.08H92l-.57,0a9.2,9.2,0,0,0-1,.12c-.35.06-.69.15-1,.24l-.54.18-.16.06a.55.55,0,0,0-.18.16.7.7,0,0,0-.11.23.86.86,0,0,0,0,.45l0,.12.11.24,3.35,7.2,0,.06A.11.11,0,0,0,92,63a.14.14,0,0,0,.1-.08v-.07L92.78,55l0-.26a.49.49,0,0,0,0-.12A1,1,0,0,0,92.6,54.18Z"/><line class="cls-5" x1="92.26" y1="64.54" x2="90.21" y2="52.89"/><path class="cls-1" d="M97.68,55.75a.72.72,0,0,0-.07-.25.58.58,0,0,0-.16-.19l-.14-.08a4.82,4.82,0,0,0-.5-.27,8.2,8.2,0,0,0-1-.42,9,9,0,0,0-1-.3l-.55-.11-.17,0a.67.67,0,0,0-.24,0,.8.8,0,0,0-.21.15.89.89,0,0,0-.26.37l0,.12,0,.26L92.65,63V63a.13.13,0,0,0,.08.1.13.13,0,0,0,.12,0l0-.05,4.56-6.52.15-.21a.54.54,0,0,1,0-.11A1,1,0,0,0,97.68,55.75Z"/><line class="cls-5" x1="92.21" y1="64.55" x2="96.25" y2="53.43"/><path class="cls-1" d="M101.35,59.67a1.22,1.22,0,0,0,.06-.26.67.67,0,0,0,0-.24s-.05-.09-.08-.14l-.3-.49a9.68,9.68,0,0,0-.63-.84,8.62,8.62,0,0,0-.72-.76c-.13-.13-.28-.26-.42-.38l-.13-.1a.65.65,0,0,0-.23-.09l-.26,0a1,1,0,0,0-.41.2.34.34,0,0,0-.08.09l-.15.21-4.57,6.5,0,.06a.13.13,0,0,0,0,.12.14.14,0,0,0,.12,0l.06,0,7.2-3.37.23-.11.1-.07A.93.93,0,0,0,101.35,59.67Z"/><line class="cls-5" x1="92.21" y1="64.55" x2="101.27" y2="56.94"/><path class="cls-1" d="M102.56,64.89a.86.86,0,0,0,.19-.19.58.58,0,0,0,.08-.22v-.17c0-.19,0-.38,0-.57a9.2,9.2,0,0,0-.12-1,8.42,8.42,0,0,0-.24-1q-.08-.27-.18-.54l-.06-.16a.65.65,0,0,0-.15-.18,1.08,1.08,0,0,0-.24-.12,1,1,0,0,0-.45,0l-.12,0-.23.11-7.21,3.35-.06,0a.13.13,0,0,0,0,.21h.06l7.92.69.26,0h.12A.92.92,0,0,0,102.56,64.89Z"/><line class="cls-5" x1="92.21" y1="64.55" x2="103.86" y2="62.49"/><path class="cls-1" d="M101,70a.78.78,0,0,0,.25-.07.52.52,0,0,0,.18-.15l.09-.15.27-.5a10.25,10.25,0,0,0,.41-1,9.49,9.49,0,0,0,.3-1,5.59,5.59,0,0,0,.12-.56l0-.17a.59.59,0,0,0,0-.23,1,1,0,0,0-.52-.48l-.12,0-.26,0L93.79,65h-.06a.14.14,0,0,0-.1.08.13.13,0,0,0,0,.12l.06,0,6.51,4.55.22.15.11,0A.78.78,0,0,0,101,70Z"/><line class="cls-5" x1="92.2" y1="64.51" x2="103.31" y2="68.55"/><path class="cls-1" d="M97.08,73.65a.76.76,0,0,0,.25.06.51.51,0,0,0,.24,0l.15-.08.48-.3a8.36,8.36,0,0,0,.84-.63A8.51,8.51,0,0,0,99.8,72c.13-.14.26-.28.38-.43a.69.69,0,0,0,.11-.13.57.57,0,0,0,.08-.23.78.78,0,0,0,0-.26.92.92,0,0,0-.19-.4.76.76,0,0,0-.09-.09l-.21-.15-6.51-4.57,0,0a.11.11,0,0,0-.12,0,.1.1,0,0,0,0,.11l0,.06,3.37,7.2.11.24a.86.86,0,0,1,.07.1A1,1,0,0,0,97.08,73.65Z"/><line class="cls-5" x1="92.2" y1="64.51" x2="99.8" y2="73.57"/><path class="cls-1" d="M91.86,74.86a.81.81,0,0,0,.18.19.63.63,0,0,0,.23.08H93c.34,0,.69-.07,1-.13a8.89,8.89,0,0,0,1-.24q.27-.07.54-.18l.15,0a.6.6,0,0,0,.19-.16.66.66,0,0,0,.11-.24.85.85,0,0,0,0-.45l0-.11L96,73.32l-3.35-7.21,0-.06a.13.13,0,0,0-.12,0,.12.12,0,0,0-.09.08v.06l-.68,7.92,0,.26a.49.49,0,0,0,0,.12A.82.82,0,0,0,91.86,74.86Z"/><line class="cls-5" x1="92.2" y1="64.51" x2="94.25" y2="76.16"/><path class="cls-1" d="M86.73,73.35a.78.78,0,0,0,.07.25.65.65,0,0,0,.15.18l.15.09.5.27a10.25,10.25,0,0,0,1,.41,9.49,9.49,0,0,0,1,.3l.56.12.17,0a.67.67,0,0,0,.24,0,.8.8,0,0,0,.21-.15.92.92,0,0,0,.26-.38l0-.11,0-.26.7-7.92v-.06a.12.12,0,0,0-.08-.1.11.11,0,0,0-.12,0l0,.06L87,72.57l-.15.22,0,.11A1,1,0,0,0,86.73,73.35Z"/><line class="cls-5" x1="92.21" y1="64.55" x2="88.16" y2="75.66"/><path class="cls-1" d="M83.06,69.43a1.14,1.14,0,0,0-.06.25.67.67,0,0,0,0,.24l.08.15.3.48a8.36,8.36,0,0,0,.63.84,8.62,8.62,0,0,0,.72.76c.13.13.28.26.42.38l.13.11a.63.63,0,0,0,.23.08.78.78,0,0,0,.26,0,.91.91,0,0,0,.41-.19l.08-.09.15-.21L91,65.7l0,0a.13.13,0,0,0,0-.12.11.11,0,0,0-.12,0l-.06,0-7.2,3.37-.23.11-.1.07A.89.89,0,0,0,83.06,69.43Z"/><line class="cls-5" x1="92.21" y1="64.55" x2="83.14" y2="72.15"/><path class="cls-1" d="M83.41,59.07a1.11,1.11,0,0,0-.26.07.55.55,0,0,0-.18.16l-.09.14-.27.5a9.41,9.41,0,0,0-.41,1,8.83,8.83,0,0,0-.3,1l-.12.55a1.11,1.11,0,0,0,0,.17.51.51,0,0,0,0,.24.78.78,0,0,0,.15.22.81.81,0,0,0,.37.25l.12,0,.26,0,7.91.7h.07a.1.1,0,0,0,.09-.07.12.12,0,0,0,0-.13l0,0-6.52-4.55L84,59.17l-.11-.06A1,1,0,0,0,83.41,59.07Z"/><line class="cls-5" x1="92.2" y1="64.55" x2="81.09" y2="60.5"/><path class="cls-1" d="M87.32,55.37a.84.84,0,0,0-.26-.07.67.67,0,0,0-.24,0l-.14.08-.49.31a8.25,8.25,0,0,0-.84.62,10.4,10.4,0,0,0-.76.72l-.38.42a1.47,1.47,0,0,1-.1.13.5.5,0,0,0-.09.23,1.14,1.14,0,0,0,0,.26.83.83,0,0,0,.2.41l.08.08.22.16L91,63.32l0,0a.15.15,0,0,0,.13,0,.14.14,0,0,0,0-.12l0-.06L87.86,56l-.11-.23a.36.36,0,0,0-.07-.1A.9.9,0,0,0,87.32,55.37Z"/><line class="cls-5" x1="92.2" y1="64.51" x2="84.59" y2="55.44"/></g></g></svg>