<svg xmlns="http://www.w3.org/2000/svg" viewBox="0 0 348.09 22.81"><defs><style>.cls-1{fill:#f4833a;}</style></defs><title>Asset 7</title><g id="Layer_2" data-name="Layer 2"><g id="Layer_1-2" data-name="Layer 1"><path class="cls-1" d="M15.68.13V13.47c0,5.5-2.53,9.34-8,9.34A7.81,7.81,0,0,1,0,16.29l1.09-.13a6.76,6.76,0,0,0,6.62,5.47c4.61,0,6.78-3.33,6.78-8V.13Z"/><path class="cls-1" d="M32.93,22.69H31.74V.13h1.19Z"/><path class="cls-1" d="M64.12,16.16H51.23l-2.88,6.53H47.07L57.25.13h.89L68.29,22.69H67Zm-12.44-1h12L57.66,1.57Z"/><path class="cls-1" d="M101.31,17.76l.93.8a12,12,0,0,1-9.19,4.25,11.63,11.63,0,0,1-11.8-11.39A11.66,11.66,0,0,1,93.05,0a12,12,0,0,1,9.19,4.29l-.93.8a10.7,10.7,0,0,0-8.26-3.91A10.41,10.41,0,0,0,82.49,11.42,10.38,10.38,0,0,0,93.05,21.63,10.7,10.7,0,0,0,101.31,17.76Z"/><path class="cls-1" d="M134.46.13V22.69h-1.18V13.25H118.49v9.44h-1.18V.13h1.18v12h14.79V.13Z"/><path class="cls-1" d="M166.36,21.57v1.12H150.84V.13h14.85V1.25H152v10h11.68v1.09H152v9.28Z"/><path class="cls-1" d="M199.93.13V22.69h-.77L182.62,2.4V22.69h-1.18V.13h.8l16.51,20.28V.13Z"/><path class="cls-1" d="M236.73,12.22v7.3A15.52,15.52,0,0,1,227,22.81a11.67,11.67,0,0,1-11.87-11.39A11.67,11.67,0,0,1,227,0a12.89,12.89,0,0,1,8.9,3.23l-.8.87A11.79,11.79,0,0,0,227,1.22a10.45,10.45,0,0,0-10.65,10.2A10.46,10.46,0,0,0,227,21.66a14,14,0,0,0,8.55-2.75v-5.6h-9.12V12.22Z"/><path class="cls-1" d="M297.62,21.6v1.09H283.16V.13h1.19V21.6Z"/><path class="cls-1" d="M313.59,22.69h-1.18V.13h1.18Z"/><path class="cls-1" d="M348.09,13.63c0,5.09-3.17,9.18-9.09,9.18s-9-4.06-9-9.18V.13h1.15V13.5c0,4.64,2.75,8.13,7.84,8.13s7.9-3.52,7.9-8.13V.13h1.19Z"/></g></g></svg>