<svg xmlns="http://www.w3.org/2000/svg" viewBox="0 0 315.99 23.33"><defs><style>.cls-1{fill:#ae93d1;}</style></defs><title>Asset 41</title><g id="Layer_2" data-name="Layer 2"><g id="Layer_1-2" data-name="Layer 1"><path class="cls-1" d="M0,15.1H2.69c.19,4.23,2.65,5.67,5.63,5.67,3.49,0,5.38-2,5.38-6.85V.38h2.72V14c0,6.53-2.69,9.35-8.07,9.35C3.68,23.33.16,20.73,0,15.1Z"/><path class="cls-1" d="M29.05.38h2.79V22.94H29.05Z"/><path class="cls-1" d="M59.77,17.5H48l-2.4,5.44H42.69L53.12.38h1.5L65.08,22.94H62.21ZM49,15.2h9.76L53.85,4.13Z"/><path class="cls-1" d="M74.72,11.55C74.72,4.32,79.23,0,86.3,0,90.88,0,94,1.7,96.12,4.32L94,6.08A9.32,9.32,0,0,0,86.3,2.56c-5.31,0-8.73,3.33-8.73,9S81,20.77,86.3,20.77A9.3,9.3,0,0,0,94,17.28L96.12,19c-2.17,2.62-5.24,4.29-9.82,4.29C79.23,23.33,74.72,18.78,74.72,11.55Z"/><path class="cls-1" d="M107.84.38h2.69V11.87h12.76V.38H126V22.94h-2.69V14.21H110.53v8.73h-2.69Z"/><path class="cls-1" d="M139,.38h15.65V2.72h-13v8.13h11v2.3h-11v7.46h13.63v2.33H139Z"/><path class="cls-1" d="M186.3.38V22.94h-1.44L169.69,5.66V22.94H167V.38h1.44l15.17,17.25V.38Z"/><path class="cls-1" d="M219.9,11.84v8.51c-2.5,2.24-6,3-9.54,3-7.61,0-12.16-4.42-12.16-11.65S202.75,0,210.14,0a13,13,0,0,1,8.93,3.23l-1.73,1.89a10.57,10.57,0,0,0-7.2-2.59C204.47,2.53,201,6,201,11.68s3.48,9.12,9.37,9.12A11.62,11.62,0,0,0,217.24,19V14.17h-7.65V11.84Z"/><path class="cls-1" d="M255,.38h2.69V20.61h13.21v2.33H255Z"/><path class="cls-1" d="M281.88.38h2.78V22.94h-2.78Z"/><path class="cls-1" d="M297.43,14V.38h2.69V13.44c0,5,1.85,7.33,6.59,7.33s6.59-2.34,6.59-7.33V.38H316V14c0,6.17-2.88,9.31-9.28,9.31S297.43,20.19,297.43,14Z"/></g></g></svg>